<svg width="28" height="24" viewBox="0 0 28 24" fill="none" xmlns="http://www.w3.org/2000/svg">
<g id="Indica&#195;&#167;&#195;&#163;o">
<path id="Vector" d="M23.4359 3.21751C23.3222 3.11677 23.1785 3.04701 23.0217 3.01646C22.865 2.9859 22.7017 2.9958 22.551 3.04501L4.00977 9.04501C3.84987 9.09898 3.7122 9.19497 3.61506 9.32023C3.51791 9.44548 3.46588 9.59407 3.46588 9.74626C3.46588 9.89845 3.51791 10.047 3.61506 10.1723C3.7122 10.2975 3.84987 10.3935 4.00977 10.4475L11.2493 13.02L16.5925 8.25001L17.7809 9.30751L12.4123 14.085L15.3115 20.5275C15.374 20.6671 15.4821 20.7867 15.6218 20.8709C15.7615 20.9552 15.9265 21.0002 16.0953 21C16.2656 20.9969 16.4309 20.9479 16.5693 20.8596C16.7077 20.7712 16.8128 20.6476 16.8707 20.505L23.6129 4.00501C23.6703 3.87232 23.6842 3.72783 23.6529 3.5884C23.6215 3.44897 23.5463 3.32034 23.4359 3.21751Z" fill="black"/>
</g>
</svg>
