<svg width="65" height="65" viewBox="0 0 65 65" fill="none" xmlns="http://www.w3.org/2000/svg">
<g id="Flat">
<g id="SVGRepo_iconCarrier">
<path id="Vector" d="M19.825 16.75C19.2865 16.75 18.85 17.1418 18.85 17.625V22.875C18.85 23.3582 19.2865 23.75 19.825 23.75H37.375C37.9135 23.75 38.35 23.3582 38.35 22.875V17.625C38.35 17.1418 37.9135 16.75 37.375 16.75H19.825ZM19.825 15H37.375C38.9904 15 40.3 16.1753 40.3 17.625V22.875C40.3 24.3247 38.9904 25.5 37.375 25.5H19.825C18.2096 25.5 16.9 24.3247 16.9 22.875V17.625C16.9 16.1753 18.2096 15 19.825 15ZM21.775 18.5H23.725C24.2635 18.5 24.7 18.8918 24.7 19.375V21.125C24.7 21.6082 24.2635 22 23.725 22H21.775C21.2365 22 20.8 21.6082 20.8 21.125V19.375C20.8 18.8918 21.2365 18.5 21.775 18.5ZM27.625 18.5H29.575C30.1135 18.5 30.55 18.8918 30.55 19.375V21.125C30.55 21.6082 30.1135 22 29.575 22H27.625C27.0865 22 26.65 21.6082 26.65 21.125V19.375C26.65 18.8918 27.0865 18.5 27.625 18.5ZM42.25 39.5V37.75H37.375C35.7596 37.75 34.45 36.5747 34.45 35.125V33.375C34.45 31.9253 35.7596 30.75 37.375 30.75H42.25V29.875C42.25 29.3918 41.8135 29 41.275 29H23.725C23.1865 29 22.75 29.3918 22.75 29.875V30.75H27.625C29.2404 30.75 30.55 31.9253 30.55 33.375V35.125C30.55 36.5747 29.2404 37.75 27.625 37.75H15.925C14.3096 37.75 13 36.5747 13 35.125V33.375C13 31.9253 14.3096 30.75 15.925 30.75H20.8V29.875C20.8 28.4253 22.1096 27.25 23.725 27.25H28.6V24.625C28.6 24.1418 29.0365 23.75 29.575 23.75C30.1135 23.75 30.55 24.1418 30.55 24.625V27.25H41.275C42.8904 27.25 44.2 28.4253 44.2 29.875V30.75H49.075C50.6904 30.75 52 31.9253 52 33.375V35.125C52 36.5747 50.6904 37.75 49.075 37.75H44.2V39.6494C45.3361 40.0097 46.15 40.9821 46.15 42.125V43H47.125C48.7404 43 50.05 44.1753 50.05 45.625V47.375C50.05 48.8247 48.7404 50 47.125 50H43.225C41.6096 50 40.3 48.8247 40.3 47.375V45.625C40.3 44.1753 41.6096 43 43.225 43H44.2V42.125C44.2 41.6418 43.7635 41.25 43.225 41.25H32.5V43H33.475C35.0904 43 36.4 44.1753 36.4 45.625V47.375C36.4 48.8247 35.0904 50 33.475 50H29.575C27.9596 50 26.65 48.8247 26.65 47.375V45.625C26.65 44.1753 27.9596 43 29.575 43H30.55V41.25H19.825C19.2865 41.25 18.85 41.6418 18.85 42.125V43H19.825C21.4404 43 22.75 44.1753 22.75 45.625V47.375C22.75 48.8247 21.4404 50 19.825 50H15.925C14.3096 50 13 48.8247 13 47.375V45.625C13 44.1753 14.3096 43 15.925 43H16.9V42.125C16.9 40.6753 18.2096 39.5 19.825 39.5H42.25ZM33.475 18.5H35.425C35.9635 18.5 36.4 18.8918 36.4 19.375V21.125C36.4 21.6082 35.9635 22 35.425 22H33.475C32.9365 22 32.5 21.6082 32.5 21.125V19.375C32.5 18.8918 32.9365 18.5 33.475 18.5ZM37.375 32.5C36.8365 32.5 36.4 32.8918 36.4 33.375V35.125C36.4 35.6082 36.8365 36 37.375 36H49.075C49.6135 36 50.05 35.6082 50.05 35.125V33.375C50.05 32.8918 49.6135 32.5 49.075 32.5H37.375ZM15.925 32.5C15.3865 32.5 14.95 32.8918 14.95 33.375V35.125C14.95 35.6082 15.3865 36 15.925 36H27.625C28.1635 36 28.6 35.6082 28.6 35.125V33.375C28.6 32.8918 28.1635 32.5 27.625 32.5H15.925ZM15.925 44.75C15.3865 44.75 14.95 45.1418 14.95 45.625V47.375C14.95 47.8582 15.3865 48.25 15.925 48.25H19.825C20.3635 48.25 20.8 47.8582 20.8 47.375V45.625C20.8 45.1418 20.3635 44.75 19.825 44.75H15.925ZM29.575 44.75C29.0365 44.75 28.6 45.1418 28.6 45.625V47.375C28.6 47.8582 29.0365 48.25 29.575 48.25H33.475C34.0135 48.25 34.45 47.8582 34.45 47.375V45.625C34.45 45.1418 34.0135 44.75 33.475 44.75H29.575ZM43.225 44.75C42.6865 44.75 42.25 45.1418 42.25 45.625V47.375C42.25 47.8582 42.6865 48.25 43.225 48.25H47.125C47.6635 48.25 48.1 47.8582 48.1 47.375V45.625C48.1 45.1418 47.6635 44.75 47.125 44.75H43.225Z" fill="#3D548D"/>
</g>
</g>
</svg>
