<svg width="607" height="490" viewBox="0 0 607 490" fill="none" xmlns="http://www.w3.org/2000/svg">
<g clip-path="url(#clip0_730_262)">
<path d="M588.531 432.342C603.992 417.781 611.964 395.967 603.658 377.515C591.566 396.083 571.659 410.706 548.579 417.975C539.59 420.806 529.253 423.142 524.363 430.283C521.321 434.727 521.099 440.292 522.47 445.323C523.841 450.355 526.663 454.983 529.458 459.548L529.474 460.839C551.353 455.27 573.069 446.904 588.531 432.342Z" fill="#F2F2F2"/>
<path d="M603.193 377.612C600.586 393.682 592.055 409.131 579.013 420.778C576.182 423.412 572.97 425.604 569.484 427.278C565.897 428.867 561.987 429.59 558.069 429.388C554.379 429.271 550.619 428.779 546.96 429.443C545.166 429.759 543.453 430.433 541.925 431.426C540.397 432.419 539.085 433.71 538.067 435.222C535.641 438.792 534.836 442.906 534.209 446.953C533.513 451.447 532.872 456.124 529.914 459.989C529.556 460.457 530.413 460.913 530.771 460.445C535.916 453.72 534.195 445.126 537.666 437.873C539.286 434.489 542.089 431.508 546.28 430.486C549.944 429.593 553.821 430.097 557.557 430.244C561.385 430.487 565.221 429.907 568.807 428.542C572.377 427.03 575.68 424.95 578.588 422.384C584.955 416.941 590.395 410.499 594.696 403.31C599.469 395.434 602.694 386.718 604.197 377.631C604.287 377.076 603.282 377.061 603.193 377.612Z" fill="white"/>
<path d="M583.482 417.186C586.137 418.833 589.24 419.611 592.357 419.412C595.475 419.213 598.453 418.046 600.877 416.075C601.336 415.679 600.651 415.041 600.191 415.437C597.937 417.276 595.164 418.362 592.261 418.542C589.358 418.723 586.471 417.988 584.008 416.442C583.487 416.108 582.965 416.855 583.482 417.186Z" fill="white"/>
<path d="M559.931 429.662C559.415 426.855 559.498 423.971 560.177 421.198C560.855 418.426 562.112 415.829 563.866 413.577C564.222 413.108 563.365 412.652 563.009 413.121C561.189 415.467 559.887 418.172 559.188 421.058C558.489 423.945 558.409 426.946 558.954 429.866C559.062 430.421 560.038 430.214 559.931 429.662Z" fill="white"/>
<path d="M598.196 395.199C597.1 394.808 596.122 394.143 595.355 393.268C594.587 392.392 594.056 391.335 593.812 390.197C593.713 389.641 592.736 389.848 592.835 390.401C593.11 391.657 593.698 392.823 594.543 393.792C595.388 394.76 596.464 395.5 597.671 395.943C597.785 396.001 597.916 396.018 598.041 395.992C598.167 395.966 598.28 395.898 598.362 395.799C598.395 395.75 598.418 395.695 598.428 395.636C598.438 395.578 598.434 395.518 598.419 395.461C598.403 395.403 598.375 395.35 598.336 395.305C598.298 395.26 598.25 395.224 598.196 395.199Z" fill="white"/>
<path d="M530.34 356.534C530.391 356.883 530.441 357.232 530.486 357.586C531.137 362.271 531.349 367.007 531.119 371.732C531.108 372.097 531.09 372.467 531.067 372.831C530.34 384.326 527.208 395.541 521.875 405.749C519.706 409.916 517.2 413.9 514.384 417.661C510.46 422.908 505.725 428.327 504.074 434.221C503.894 434.832 503.758 435.455 503.666 436.085L527.661 460.756C527.748 460.788 527.828 460.825 527.916 460.858L528.822 461.881C528.984 461.694 529.148 461.497 529.31 461.31C529.405 461.202 529.494 461.088 529.589 460.98C529.65 460.906 529.711 460.832 529.771 460.768C529.792 460.744 529.812 460.719 529.826 460.699C529.887 460.635 529.935 460.571 529.989 460.512C530.907 459.413 531.818 458.306 532.722 457.191C532.728 457.187 532.728 457.187 532.73 457.176C539.591 448.67 545.696 439.591 550.021 429.995C550.151 429.707 550.288 429.413 550.407 429.113C552.318 424.812 553.831 420.344 554.926 415.766C555.51 413.28 555.949 410.763 556.243 408.226C556.983 401.679 556.533 395.051 554.916 388.664C551.685 375.866 543.781 364.108 531.3 357.064C530.981 356.884 530.666 356.709 530.34 356.534Z" fill="#F2F2F2"/>
<path d="M530.034 356.854C539.084 371.049 542.975 387.848 540.63 403.972C540.205 407.522 539.154 410.967 537.524 414.149C535.711 417.345 533.066 419.992 529.872 421.807C526.844 423.644 523.501 425.219 521.04 427.664C519.829 428.855 518.918 430.315 518.379 431.926C517.841 433.537 517.691 435.252 517.942 436.932C518.478 441.051 520.685 444.758 522.988 448.317C525.545 452.269 528.273 456.339 528.589 460.973C528.628 461.534 529.628 461.449 529.589 460.889C529.039 452.827 521.711 446.865 519.458 439.258C518.408 435.708 518.581 431.862 521.219 428.853C523.526 426.222 526.971 424.595 530.055 422.758C533.209 421.016 535.888 418.529 537.859 415.512C539.667 412.423 540.869 409.017 541.403 405.477C542.713 397.634 542.594 389.619 541.051 381.818C539.296 372.756 535.834 364.111 530.849 356.343C530.536 355.853 529.724 356.367 530.034 356.854Z" fill="white"/>
<path d="M541.71 398.766C548.282 398.706 553.89 394.421 554.829 388.776C554.922 388.22 553.932 388.069 553.839 388.626C552.959 393.914 547.757 397.841 541.614 397.897C540.967 397.903 541.067 398.772 541.71 398.766Z" fill="white"/>
<path d="M531.548 421.051C529.275 419.238 527.394 416.983 526.018 414.422C524.643 411.86 523.802 409.045 523.547 406.149C523.507 405.588 522.507 405.672 522.547 406.232C522.819 409.247 523.701 412.174 525.138 414.837C526.576 417.5 528.539 419.844 530.909 421.724C531.379 422.112 532.016 421.436 531.548 421.051Z" fill="white"/>
<path d="M538.227 373.51C537.013 373.757 535.759 373.732 534.555 373.439C533.351 373.145 532.226 372.589 531.261 371.811C530.797 371.419 530.161 372.095 530.622 372.485C531.692 373.34 532.935 373.953 534.264 374.28C535.594 374.607 536.979 374.641 538.323 374.38C538.59 374.328 538.801 374.16 538.775 373.903C538.751 373.78 538.681 373.671 538.579 373.598C538.477 373.525 538.351 373.494 538.227 373.51Z" fill="white"/>
<path d="M493.961 169.622C505.323 169.622 514.533 160.407 514.533 149.041C514.533 137.675 505.323 128.46 493.961 128.46C482.6 128.46 473.39 137.675 473.39 149.041C473.39 160.407 482.6 169.622 493.961 169.622Z" fill="#A0616A"/>
<path d="M584.105 244.122C581.214 237.407 577.243 231.211 572.352 225.779C576.494 232.384 578.861 239.947 579.224 247.736C577.725 248.673 576.156 249.494 574.531 250.192C569.647 252.241 564.441 253.411 559.151 253.648C556.299 244.145 551.378 235.392 544.741 228.019C549.524 235.65 551.929 244.533 551.651 253.536C545.75 253.026 539.937 251.78 534.346 249.826C525.95 246.937 517.801 242.622 511.996 235.91C505.712 228.646 502.615 219.06 501.615 209.504C500.615 199.955 501.556 190.317 502.503 180.761C502.951 176.207 499.16 170.966 499.608 166.412H499.907C501.899 163.68 503.929 160.88 504.906 157.64C505.876 154.407 505.623 150.592 503.391 148.046C502.141 146.716 500.564 145.738 498.817 145.209C498.653 145 498.474 144.799 498.287 144.597C494.908 141.007 490.931 138.031 486.534 135.803C489.705 138.199 491.825 140.909 492.81 143.709C490.064 143.104 487.317 142.502 484.571 141.902C483.654 140.928 482.687 140.001 481.676 139.125C480.505 138.176 479.265 137.315 477.967 136.549C479.383 137.795 480.48 139.362 481.168 141.118C477.639 140.23 474.109 138.894 472.273 135.855C469.229 130.831 472.848 124.052 477.9 121.051C481.575 118.974 485.809 118.105 490.005 118.567C494.2 119.029 498.144 120.799 501.28 123.626C508.585 118.243 518.988 118.333 527.114 122.357C532.479 125.132 537.101 129.154 540.592 134.086C538.567 133.826 536.529 133.684 534.487 133.66C537.361 134.081 540.097 135.165 542.48 136.826C543.534 138.463 544.5 140.155 545.375 141.895C545.95 143.037 546.492 144.194 547.002 145.366C550.128 152.489 552.166 160.074 554.278 167.569C556.74 176.304 559.382 185.099 563.994 192.915C571.065 204.801 582.219 213.704 595.373 217.963C596.47 227.84 591.649 237.5 584.105 244.122Z" fill="#2F2E41"/>
<path d="M536.366 467.109L528.9 470.586L511.938 443.426L522.959 438.293L536.366 467.109Z" fill="#A0616A"/>
<path d="M546.331 478.217L540.976 480.711L537.666 476.098L537.572 482.296L523.369 488.911C522.688 489.228 521.924 489.319 521.188 489.171C520.452 489.023 519.782 488.643 519.277 488.087C518.772 487.531 518.457 486.828 518.38 486.081C518.302 485.334 518.465 484.581 518.845 483.933L526.541 470.814L524.161 465.701L536.423 460.857L546.331 478.217Z" fill="#2F2E41"/>
<path d="M461.404 474.962H453.167L449.247 443.178H461.404V474.962Z" fill="#A0616A"/>
<path d="M465.751 489.24H459.844L458.789 483.661L456.089 489.24H440.423C439.672 489.24 438.94 489 438.335 488.555C437.73 488.109 437.284 487.482 437.06 486.765C436.837 486.048 436.848 485.278 437.093 484.568C437.338 483.857 437.803 483.244 438.421 482.817L450.932 474.173V468.533L464.091 469.318L465.751 489.24Z" fill="#2F2E41"/>
<path d="M499.448 234.127L492.624 254.958L490.368 271.845L454.117 260.648L457.47 222.967L465.01 215.504L499.448 234.127Z" fill="#A0616A"/>
<path d="M152.4 39.3243C154.422 36.284 153.225 31.9317 149.727 29.6034C146.229 27.275 141.754 27.8523 139.732 30.8926C137.71 33.933 138.907 38.2852 142.405 40.6136C145.903 42.9419 150.378 42.3647 152.4 39.3243Z" fill="#FD6584"/>
<path d="M225.928 292.647C227.95 289.607 226.753 285.254 223.255 282.926C219.757 280.598 215.282 281.175 213.26 284.215C211.238 287.256 212.435 291.608 215.933 293.936C219.431 296.265 223.906 295.687 225.928 292.647Z" fill="#E6E6E6"/>
<path d="M19.9656 75.3959C21.9874 72.3555 20.7907 68.0033 17.2926 65.6749C13.7944 63.3466 9.31956 63.9238 7.29767 66.9642C5.27578 70.0045 6.47253 74.3567 9.97067 76.6851C13.4688 79.0134 17.9437 78.4362 19.9656 75.3959Z" fill="#E6E6E6"/>
<path d="M279.558 255.627H30.8779C22.6914 255.618 14.8429 252.36 9.05419 246.569C3.26548 240.777 0.00929677 232.926 0 224.735V117.794C0.00924355 109.604 3.26541 101.752 9.05413 95.9606C14.8429 90.1694 22.6914 86.9118 30.8779 86.9025C110.23 64.9088 193.455 66.9692 279.558 86.9025C287.745 86.9118 295.593 90.1694 301.382 95.9606C307.171 101.752 310.427 109.604 310.436 117.794V224.735C310.427 232.926 307.171 240.777 301.382 246.569C295.593 252.36 287.745 255.618 279.558 255.627Z" fill="#F2F2F2"/>
<path d="M26.4916 228.377C26.3936 228.377 26.2965 228.358 26.206 228.32C26.1155 228.283 26.0332 228.228 25.9639 228.159C25.8946 228.089 25.8396 228.007 25.8021 227.916C25.7646 227.826 25.7453 227.729 25.7454 227.631V114.899C25.7454 114.701 25.824 114.511 25.9639 114.371C26.1039 114.231 26.2937 114.152 26.4916 114.152C26.6895 114.152 26.8793 114.231 27.0193 114.371C27.1592 114.511 27.2378 114.701 27.2378 114.899V227.631C27.2379 227.729 27.2186 227.826 27.1811 227.916C27.1436 228.007 27.0886 228.089 27.0193 228.159C26.95 228.228 26.8678 228.283 26.7772 228.32C26.6867 228.358 26.5896 228.377 26.4916 228.377Z" fill="white"/>
<path d="M285.437 228.377C285.535 228.377 285.632 228.358 285.723 228.32C285.813 228.283 285.896 228.228 285.965 228.159C286.034 228.089 286.089 228.007 286.127 227.916C286.164 227.826 286.183 227.729 286.183 227.631V114.899C286.183 114.701 286.105 114.511 285.965 114.371C285.825 114.231 285.635 114.152 285.437 114.152C285.239 114.152 285.049 114.231 284.909 114.371C284.77 114.511 284.691 114.701 284.691 114.899V227.631C284.691 227.729 284.71 227.826 284.748 227.916C284.785 228.007 284.84 228.089 284.909 228.159C284.979 228.228 285.061 228.283 285.152 228.32C285.242 228.358 285.339 228.377 285.437 228.377Z" fill="white"/>
<path d="M236.185 138.789H236.183C235.985 138.788 235.795 138.709 235.656 138.569C235.516 138.428 235.438 138.238 235.439 138.04L235.812 23.8151C235.813 23.6175 235.892 23.4283 236.032 23.2889C236.171 23.1494 236.361 23.0711 236.558 23.071H236.561C236.759 23.0717 236.948 23.151 237.088 23.2915C237.227 23.432 237.305 23.6222 237.305 23.8202L236.931 138.045C236.931 138.243 236.852 138.432 236.712 138.571C236.572 138.711 236.383 138.789 236.185 138.789Z" fill="#3F3D56"/>
<path d="M140.666 302.287H140.664C140.466 302.287 140.277 302.207 140.137 302.067C139.998 301.927 139.92 301.737 139.92 301.539L140.293 190.3C140.294 190.102 140.373 189.913 140.513 189.773C140.653 189.634 140.842 189.556 141.04 189.556H141.042C141.24 189.556 141.43 189.636 141.569 189.776C141.708 189.917 141.786 190.107 141.786 190.305L141.413 301.543C141.412 301.741 141.333 301.93 141.193 302.07C141.053 302.209 140.864 302.287 140.666 302.287Z" fill="#3F3D56"/>
<path d="M69.7736 159.693H69.771C69.5731 159.692 69.3836 159.613 69.2441 159.472C69.1047 159.332 69.0267 159.142 69.0273 158.944L69.4005 46.212C69.4012 46.0145 69.4801 45.8253 69.62 45.6858C69.7599 45.5464 69.9493 45.4681 70.1467 45.468H70.1493C70.3472 45.4687 70.5367 45.548 70.6762 45.6885C70.8156 45.829 70.8936 46.0191 70.8929 46.2171L70.5198 158.949C70.5191 159.146 70.4402 159.336 70.3003 159.475C70.1605 159.615 69.971 159.693 69.7736 159.693Z" fill="#3F3D56"/>
<path d="M38.9606 189.704C40.3978 181.942 49.2191 178.363 56.3668 178.971C66.5815 179.84 75.1065 186.568 84.6135 189.74C89.2076 191.272 94.1504 192.114 98.9647 191.232C102.76 190.45 106.279 188.672 109.161 186.081C114.689 181.355 118.426 174.909 123.958 170.188C126.916 167.523 130.658 165.888 134.623 165.529C139.503 165.205 144.283 166.86 148.562 169.078C157.061 173.484 164.019 180.495 173.071 183.896C177.228 185.499 181.736 185.965 186.133 185.246C190.521 184.371 194.693 182.639 198.411 180.148C206.205 175.222 212.629 168.386 220.824 164.066C224.854 161.941 229.331 160.316 233.935 160.284C238.384 160.29 242.661 162.003 245.885 165.07C252.091 170.715 256.985 179.626 266.465 179.782C268.442 179.819 270.388 179.284 272.069 178.243C273.292 177.487 272.169 175.548 270.939 176.309C267.075 178.7 262.421 177.191 258.899 174.873C255.149 172.404 252.486 168.63 249.425 165.414C246.384 162.22 242.836 159.53 238.461 158.533C234.091 157.669 229.565 158.048 225.399 159.625C216.444 162.747 209.665 169.172 202.233 174.762C194.909 180.27 186.357 185.037 176.907 182.743C167.497 180.458 160.359 173.33 152.221 168.545C144.354 163.919 134.711 160.965 126.239 165.832C119.838 169.51 115.791 176.005 110.875 181.296C108.449 183.906 105.744 186.333 102.467 187.816C97.9133 189.876 92.7673 189.636 88.0245 188.415C78.131 185.867 69.7864 179.202 59.7119 177.209C52.2342 175.729 43.3833 177.594 38.8192 184.207C37.81 185.681 37.1226 187.351 36.8019 189.109C36.541 190.518 38.6982 191.122 38.9606 189.704Z" fill="#3F3D56"/>
<path d="M70.1467 194.595C75.5045 194.595 79.8478 190.25 79.8478 184.889C79.8478 179.529 75.5045 175.184 70.1467 175.184C64.7889 175.184 60.4456 179.529 60.4456 184.889C60.4456 190.25 64.7889 194.595 70.1467 194.595Z" fill="#6C63FF"/>
<path d="M139.92 174.064C145.278 174.064 149.621 169.719 149.621 164.359C149.621 158.999 145.278 154.654 139.92 154.654C134.562 154.654 130.219 158.999 130.219 164.359C130.219 169.719 134.562 174.064 139.92 174.064Z" fill="#6C63FF"/>
<path d="M235.439 167.345C240.797 167.345 245.14 163 245.14 157.64C245.14 152.28 240.797 147.935 235.439 147.935C230.081 147.935 225.738 152.28 225.738 157.64C225.738 163 230.081 167.345 235.439 167.345Z" fill="#6C63FF"/>
<path d="M152.223 330.719H130.944C129.774 330.718 128.643 330.295 127.759 329.527C126.876 328.759 126.299 327.698 126.135 326.538C124.821 316.866 124.821 307.06 126.135 297.387C126.296 296.244 126.86 295.196 127.723 294.43C128.587 293.664 129.694 293.231 130.848 293.207C137.777 289.484 144.998 289.483 152.314 293.207C153.012 293.219 153.699 293.382 154.328 293.687C154.956 293.992 155.51 294.43 155.952 294.97C156.415 295.535 156.746 296.196 156.922 296.905C157.097 297.614 157.112 298.354 156.967 299.069C155.257 307.58 155.257 316.345 156.967 324.856C157.112 325.571 157.097 326.311 156.922 327.02C156.746 327.729 156.415 328.39 155.952 328.955C155.501 329.507 154.932 329.952 154.286 330.258C153.641 330.563 152.936 330.72 152.223 330.719Z" fill="#6C63FF"/>
<path d="M249.98 39.7634H228.702C227.531 39.7625 226.4 39.3392 225.517 38.5713C224.633 37.8033 224.057 36.7422 223.892 35.5829C222.578 25.9102 222.578 16.1041 223.892 6.4314C224.055 5.28602 224.62 4.23606 225.486 3.47001C226.353 2.70396 227.464 2.27199 228.62 2.25164C235.315 -0.750671 242.525 -0.750304 250.054 2.25128C250.755 2.26059 251.445 2.42332 252.077 2.72806C252.709 3.03279 253.266 3.47214 253.71 4.01527C254.173 4.58027 254.504 5.24132 254.679 5.95038C254.855 6.65945 254.87 7.39872 254.724 8.11447C253.015 16.6245 253.015 25.3898 254.724 33.8999C254.87 34.6156 254.855 35.3549 254.679 36.0639C254.504 36.773 254.173 37.434 253.71 37.999C253.258 38.5518 252.689 38.9969 252.044 39.3021C251.399 39.6073 250.694 39.7649 249.98 39.7634Z" fill="#6C63FF"/>
<path d="M80.3773 59.1512H59.0985C58.3849 59.1527 57.6799 58.9951 57.0348 58.6899C56.3897 58.3847 55.8207 57.9396 55.3691 57.3868C54.9063 56.8218 54.5752 56.1608 54.3997 55.4517C54.2242 54.7427 54.2088 54.0034 54.3547 53.2876C56.064 44.7776 56.064 36.0123 54.3547 27.5022C54.2088 26.7864 54.2242 26.0471 54.3997 25.338C54.5751 24.6289 54.9063 23.9678 55.3691 23.4027C55.8113 22.8616 56.3661 22.4235 56.9949 22.1189C57.6237 21.8144 58.3114 21.6508 59.0099 21.6394C65.479 18.4698 72.6922 18.4698 80.452 21.6394C81.6093 21.6579 82.7221 22.0891 83.59 22.8554C84.4579 23.6216 85.024 24.6726 85.1863 25.8192C86.5002 35.4918 86.5002 45.2977 85.1863 54.9703C85.0222 56.1297 84.4454 57.1909 83.5619 57.9589C82.6785 58.727 81.5477 59.1503 80.3773 59.1512Z" fill="#CCCCCC"/>
<path d="M247.752 13.3657H229.842C229.545 13.3657 229.26 13.2477 229.051 13.0377C228.841 12.8277 228.723 12.5428 228.723 12.2458C228.723 11.9488 228.841 11.664 229.051 11.454C229.26 11.244 229.545 11.126 229.842 11.126H247.752C248.049 11.126 248.333 11.244 248.543 11.454C248.753 11.664 248.871 11.9488 248.871 12.2458C248.871 12.5428 248.753 12.8277 248.543 13.0377C248.333 13.2477 248.049 13.3657 247.752 13.3657Z" fill="white"/>
<path d="M247.752 22.3244H229.842C229.545 22.3244 229.26 22.2064 229.051 21.9964C228.841 21.7864 228.723 21.5016 228.723 21.2046C228.723 20.9076 228.841 20.6227 229.051 20.4127C229.26 20.2027 229.545 20.0847 229.842 20.0847H247.752C248.049 20.0847 248.333 20.2027 248.543 20.4127C248.753 20.6227 248.871 20.9076 248.871 21.2046C248.871 21.5016 248.753 21.7864 248.543 21.9964C248.333 22.2064 248.049 22.3244 247.752 22.3244Z" fill="white"/>
<path d="M247.752 31.2832H229.842C229.545 31.2832 229.26 31.1652 229.051 30.9552C228.841 30.7451 228.723 30.4603 228.723 30.1633C228.723 29.8663 228.841 29.5815 229.051 29.3714C229.26 29.1614 229.545 29.0435 229.842 29.0435H247.752C248.049 29.0435 248.333 29.1614 248.543 29.3714C248.753 29.5815 248.871 29.8663 248.871 30.1633C248.871 30.4603 248.753 30.7451 248.543 30.9552C248.333 31.1652 248.049 31.2832 247.752 31.2832Z" fill="white"/>
<path d="M80.7027 31.2832H62.7929C62.4961 31.2832 62.2114 31.1652 62.0015 30.9552C61.7915 30.7451 61.6736 30.4603 61.6736 30.1633C61.6736 29.8663 61.7915 29.5815 62.0015 29.3714C62.2114 29.1614 62.4961 29.0435 62.7929 29.0435H80.7027C80.9996 29.0435 81.2843 29.1614 81.4942 29.3714C81.7042 29.5815 81.8221 29.8663 81.8221 30.1633C81.8221 30.4603 81.7042 30.7451 81.4942 30.9552C81.2843 31.1652 80.9996 31.2832 80.7027 31.2832Z" fill="white"/>
<path d="M80.7027 40.2421H62.7929C62.4961 40.2421 62.2114 40.1242 62.0015 39.9141C61.7915 39.7041 61.6736 39.4193 61.6736 39.1223C61.6736 38.8253 61.7915 38.5404 62.0015 38.3304C62.2114 38.1204 62.4961 38.0024 62.7929 38.0024H80.7027C80.9996 38.0024 81.2843 38.1204 81.4942 38.3304C81.7042 38.5404 81.8221 38.8253 81.8221 39.1223C81.8221 39.4193 81.7042 39.7041 81.4942 39.9141C81.2843 40.1242 80.9996 40.2421 80.7027 40.2421Z" fill="white"/>
<path d="M80.7027 49.2009H62.7929C62.4961 49.2009 62.2114 49.0829 62.0015 48.8729C61.7915 48.6629 61.6736 48.378 61.6736 48.081C61.6736 47.784 61.7915 47.4992 62.0015 47.2892C62.2114 47.0792 62.4961 46.9612 62.7929 46.9612H80.7027C80.9996 46.9612 81.2843 47.0792 81.4942 47.2892C81.7042 47.4992 81.8221 47.784 81.8221 48.081C81.8221 48.378 81.7042 48.6629 81.4942 48.8729C81.2843 49.0829 80.9996 49.2009 80.7027 49.2009Z" fill="white"/>
<path d="M150.849 302.287H132.939C132.643 302.287 132.358 302.169 132.148 301.959C131.938 301.749 131.82 301.464 131.82 301.167C131.82 300.87 131.938 300.586 132.148 300.376C132.358 300.166 132.643 300.048 132.939 300.048H150.849C151.146 300.048 151.431 300.166 151.641 300.376C151.851 300.586 151.969 300.87 151.969 301.167C151.969 301.464 151.851 301.749 151.641 301.959C151.431 302.169 151.146 302.287 150.849 302.287Z" fill="white"/>
<path d="M150.849 311.246H132.939C132.643 311.246 132.358 311.128 132.148 310.918C131.938 310.708 131.82 310.423 131.82 310.126C131.82 309.829 131.938 309.544 132.148 309.334C132.358 309.124 132.643 309.006 132.939 309.006H150.849C151.146 309.006 151.431 309.124 151.641 309.334C151.851 309.544 151.969 309.829 151.969 310.126C151.969 310.423 151.851 310.708 151.641 310.918C151.431 311.128 151.146 311.246 150.849 311.246Z" fill="white"/>
<path d="M150.849 320.205H132.939C132.643 320.205 132.358 320.087 132.148 319.877C131.938 319.667 131.82 319.382 131.82 319.085C131.82 318.788 131.938 318.503 132.148 318.293C132.358 318.083 132.643 317.965 132.939 317.965H150.849C151.146 317.965 151.431 318.083 151.641 318.293C151.851 318.503 151.969 318.788 151.969 319.085C151.969 319.382 151.851 319.667 151.641 319.877C151.431 320.087 151.146 320.205 150.849 320.205Z" fill="white"/>
<path d="M502.982 268.475L453.148 257.198L434.685 300.048L429.461 387.396L443.072 458.32H470.346L457.819 387.396L460.804 333.643L474.788 398.196L511.844 451.752L528.941 436.978L499.608 386.65C499.608 386.65 511.889 296.297 498.862 280.637L502.982 268.475Z" fill="#2F2E41"/>
<path d="M473.245 183.384L477.238 181.885L482.273 173.74L500.206 175.206L504.565 183.939L515.066 191.962L510.474 216.158L503.339 245.548L455.58 239.576L455.63 217.451C455.63 217.451 447 199.971 460.941 193.421L473.245 183.384Z" fill="#E6E6E6"/>
<path d="M399.629 260.129C400.556 260.502 401.553 260.666 402.551 260.611C403.548 260.556 404.522 260.283 405.402 259.811C406.283 259.339 407.049 258.679 407.648 257.879C408.246 257.078 408.661 256.156 408.865 255.178L462.116 222.942L452.383 211.707L403.099 246.927C401.433 246.693 399.74 247.08 398.34 248.012C396.94 248.945 395.93 250.359 395.502 251.986C395.075 253.613 395.258 255.341 396.019 256.842C396.779 258.343 398.064 259.513 399.629 260.129Z" fill="#A0616A"/>
<path d="M479.861 207.655C479.861 207.655 482.405 210.217 476.02 214.429C470.908 217.801 448.105 234.466 440.022 237.101C440.124 238.289 439.827 239.477 439.179 240.477C438.531 241.478 437.569 242.234 436.444 242.628L429.125 226.537C430.71 222.859 433.244 223.711 434.577 224.545L443.416 217.895L465.121 196.211L478.054 205.771L479.861 207.655Z" fill="#E6E6E6"/>
<path d="M398.25 262.738H376.971C376.257 262.74 375.552 262.582 374.907 262.277C374.262 261.972 373.693 261.526 373.242 260.974C372.779 260.409 372.448 259.748 372.272 259.039C372.097 258.33 372.081 257.59 372.227 256.875C373.937 248.364 373.937 239.599 372.227 231.089C372.081 230.373 372.097 229.634 372.272 228.925C372.448 228.216 372.779 227.555 373.242 226.99C373.684 226.448 374.239 226.01 374.867 225.706C375.496 225.401 376.184 225.238 376.882 225.226C383.352 222.057 390.565 222.057 398.325 225.226C399.482 225.245 400.595 225.676 401.463 226.442C402.331 227.209 402.897 228.26 403.059 229.406C404.373 239.079 404.373 248.885 403.059 258.557C402.895 259.717 402.318 260.778 401.434 261.546C400.551 262.314 399.42 262.737 398.25 262.738Z" fill="#6C63FF"/>
<path d="M398.575 234.87H380.666C380.369 234.87 380.084 234.752 379.874 234.542C379.664 234.332 379.546 234.047 379.546 233.75C379.546 233.453 379.664 233.168 379.874 232.958C380.084 232.748 380.369 232.63 380.666 232.63H398.575C398.872 232.63 399.157 232.748 399.367 232.958C399.577 233.168 399.695 233.453 399.695 233.75C399.695 234.047 399.577 234.332 399.367 234.542C399.157 234.752 398.872 234.87 398.575 234.87Z" fill="white"/>
<path d="M398.575 243.829H380.666C380.369 243.829 380.084 243.711 379.874 243.501C379.664 243.291 379.546 243.006 379.546 242.709C379.546 242.412 379.664 242.127 379.874 241.917C380.084 241.707 380.369 241.589 380.666 241.589H398.575C398.872 241.589 399.157 241.707 399.367 241.917C399.577 242.127 399.695 242.412 399.695 242.709C399.695 243.006 399.577 243.291 399.367 243.501C399.157 243.711 398.872 243.829 398.575 243.829Z" fill="white"/>
<path d="M398.575 252.788H380.666C380.369 252.788 380.084 252.67 379.874 252.46C379.664 252.25 379.546 251.965 379.546 251.668C379.546 251.371 379.664 251.086 379.874 250.876C380.084 250.666 380.369 250.548 380.666 250.548H398.575C398.872 250.548 399.157 250.666 399.367 250.876C399.577 251.086 399.695 251.371 399.695 251.668C399.695 251.965 399.577 252.25 399.367 252.46C399.157 252.67 398.872 252.788 398.575 252.788Z" fill="white"/>
<path d="M501.231 326.943H479.952C479.239 326.944 478.534 326.787 477.889 326.482C477.243 326.176 476.674 325.731 476.223 325.179C475.76 324.614 475.429 323.953 475.253 323.243C475.078 322.534 475.063 321.795 475.208 321.079C476.918 312.569 476.918 303.804 475.208 295.294C475.063 294.578 475.078 293.839 475.253 293.13C475.429 292.421 475.76 291.76 476.223 291.194C476.665 290.653 477.22 290.215 477.849 289.911C478.478 289.606 479.165 289.443 479.864 289.431C486.333 286.262 493.546 286.262 501.306 289.431C502.463 289.45 503.576 289.881 504.444 290.647C505.312 291.413 505.878 292.464 506.04 293.611C507.354 303.284 507.354 313.09 506.04 322.762C505.876 323.921 505.299 324.983 504.416 325.751C503.532 326.519 502.401 326.942 501.231 326.943Z" fill="#CCCCCC"/>
<path d="M501.556 299.075H483.647C483.35 299.075 483.065 298.957 482.855 298.747C482.645 298.537 482.527 298.252 482.527 297.955C482.527 297.658 482.645 297.373 482.855 297.163C483.065 296.953 483.35 296.835 483.647 296.835H501.556C501.853 296.835 502.138 296.953 502.348 297.163C502.558 297.373 502.676 297.658 502.676 297.955C502.676 298.252 502.558 298.537 502.348 298.747C502.138 298.957 501.853 299.075 501.556 299.075Z" fill="white"/>
<path d="M501.556 308.034H483.647C483.35 308.034 483.065 307.916 482.855 307.706C482.645 307.496 482.527 307.211 482.527 306.914C482.527 306.617 482.645 306.332 482.855 306.122C483.065 305.912 483.35 305.794 483.647 305.794H501.556C501.853 305.794 502.138 305.912 502.348 306.122C502.558 306.332 502.676 306.617 502.676 306.914C502.676 307.211 502.558 307.496 502.348 307.706C502.138 307.916 501.853 308.034 501.556 308.034Z" fill="white"/>
<path d="M501.556 316.993H483.647C483.35 316.993 483.065 316.875 482.855 316.665C482.645 316.455 482.527 316.17 482.527 315.873C482.527 315.576 482.645 315.291 482.855 315.081C483.065 314.871 483.35 314.753 483.647 314.753H501.556C501.853 314.753 502.138 314.871 502.348 315.081C502.558 315.291 502.676 315.576 502.676 315.873C502.676 316.17 502.558 316.455 502.348 316.665C502.138 316.875 501.853 316.993 501.556 316.993Z" fill="white"/>
<path d="M491.784 294.886C492.715 294.524 493.556 293.962 494.246 293.24C494.937 292.518 495.461 291.653 495.781 290.706C496.101 289.759 496.21 288.754 496.1 287.76C495.99 286.767 495.663 285.81 495.143 284.956L511.99 225.012L497.209 223.467L485.297 282.876C483.922 283.845 482.95 285.285 482.565 286.923C482.18 288.561 482.409 290.283 483.208 291.764C484.008 293.244 485.323 294.38 486.903 294.955C488.484 295.531 490.22 295.506 491.784 294.886Z" fill="#A0616A"/>
<path d="M514.482 192.106C514.482 192.106 518.089 192.236 516.306 199.677C514.878 205.634 509.635 243.004 505.536 250.456C506.421 251.253 507.016 252.323 507.227 253.497C507.438 254.67 507.252 255.88 506.7 256.936L490.364 250.196C489.008 246.428 490.058 243.007 491.601 242.704L493.51 231.805L496.322 195.243L511.876 191.966L514.482 192.106Z" fill="#E6E6E6"/>
<path d="M501.149 124.186C503.622 127.836 505.219 132.008 505.817 136.377C506.415 140.746 505.997 145.194 504.596 149.374" fill="#FD6584"/>
<path d="M588.279 489.112C588.279 489.228 588.256 489.344 588.212 489.452C588.167 489.56 588.102 489.658 588.019 489.741C587.937 489.823 587.839 489.889 587.731 489.933C587.623 489.978 587.507 490 587.391 490H378.227C378.11 490 377.995 489.977 377.887 489.932C377.779 489.888 377.681 489.822 377.599 489.74C377.516 489.657 377.451 489.559 377.406 489.452C377.362 489.344 377.339 489.228 377.339 489.112C377.339 488.995 377.362 488.879 377.406 488.772C377.451 488.664 377.516 488.566 377.599 488.483C377.681 488.401 377.779 488.335 377.887 488.291C377.995 488.246 378.11 488.223 378.227 488.223H587.391C587.507 488.223 587.623 488.246 587.731 488.29C587.839 488.335 587.937 488.4 588.019 488.483C588.102 488.565 588.167 488.663 588.212 488.771C588.256 488.879 588.279 488.995 588.279 489.112Z" fill="#CCCCCC"/>
</g>
<defs>
<clipPath id="clip0_730_262">
<rect width="607" height="490" fill="white"/>
</clipPath>
</defs>
</svg>
