<svg width="65" height="65" viewBox="0 0 65 65" fill="none" xmlns="http://www.w3.org/2000/svg">
<g id="Flat">
<g id="SVGRepo_iconCarrier">
<line id="Line 4" x1="16" y1="47.5" x2="48.5645" y2="47.5" stroke="#3D548D" stroke-width="3"/>
<path id="Vector" d="M48.3243 45.5671C46.2279 41.9319 42.9762 39.1133 39.0935 37.5657C40.9996 36.1269 42.4075 34.121 43.118 31.8321C43.8284 29.5432 43.8052 27.0873 43.0518 24.8124C42.2984 22.5374 40.8529 20.5588 38.92 19.1566C36.9872 17.7545 34.665 17 32.2824 17C29.8999 17 27.5777 17.7545 25.6449 19.1566C23.712 20.5588 22.2665 22.5374 21.5131 24.8124C20.7597 27.0873 20.7365 29.5432 21.4469 31.8321C22.1574 34.121 23.5653 36.1269 25.4714 37.5657C21.5888 39.1132 18.3372 41.9317 16.2408 45.5667C16.0028 45.9808 15.9381 46.4731 16.0607 46.9353C16.1833 47.3975 16.4833 47.7918 16.8948 48.0313C17.3062 48.2709 17.7953 48.3362 18.2545 48.2129C18.7138 48.0895 19.1056 47.7877 19.3437 47.3736C20.6554 45.0881 22.5416 43.1903 24.8128 41.8709C27.084 40.5515 29.6602 39.8569 32.2826 39.8569C34.905 39.8569 37.4812 40.5516 39.7524 41.871C42.0236 43.1905 43.9098 45.0883 45.2214 47.3738C45.4597 47.7875 45.8514 48.0891 46.3105 48.2123C46.7696 48.3354 47.2585 48.2701 47.6697 48.0306C48.0809 47.7911 48.3809 47.3971 48.5036 46.9352C48.6264 46.4733 48.5619 45.9812 48.3243 45.5671ZM24.5154 28.4316C24.5154 26.8854 24.9709 25.374 25.8244 24.0885C26.6778 22.8029 27.8909 21.801 29.3101 21.2093C30.7294 20.6176 32.2911 20.4628 33.7977 20.7644C35.3044 21.0661 36.6884 21.8106 37.7746 22.9039C38.8608 23.9971 39.6006 25.3901 39.9003 26.9065C40.2 28.4229 40.0462 29.9947 39.4583 31.4231C38.8704 32.8516 37.8749 34.0725 36.5976 34.9314C35.3203 35.7904 33.8186 36.2489 32.2824 36.2489C30.2232 36.2465 28.249 35.4222 26.7929 33.9567C25.3368 32.4911 24.5177 30.5041 24.5154 28.4316Z" fill="#3D548D"/>
</g>
</g>
</svg>
