<svg width="28" height="24" viewBox="0 0 28 24" fill="none" xmlns="http://www.w3.org/2000/svg">
<g id=" contratar">
<g id="Group">
<path id="Vector" d="M11.3195 16.5L14.6907 17.5C14.6907 17.5 23.1185 16 24.2422 16C25.3659 16 25.3659 17 24.2422 18C23.1185 19 19.1855 22 15.8144 22C12.4432 22 10.1958 20.5 7.94839 20.5H2.32983" stroke="black" stroke-width="1.2" stroke-linecap="round" stroke-linejoin="round"/>
<path id="Vector_2" d="M2.32983 14.5C3.45355 13.5 5.70097 12 7.94839 12C10.1958 12 15.5334 14 16.3762 15C17.219 16 14.6907 17.5 14.6907 17.5M9.0721 9V5C9.0721 4.73478 9.19049 4.48043 9.40123 4.29289C9.61197 4.10536 9.89779 4 10.1958 4H23.6803C23.9784 4 24.2642 4.10536 24.4749 4.29289C24.6857 4.48043 24.8041 4.73478 24.8041 5V13" stroke="black" stroke-width="1.2" stroke-linecap="round" stroke-linejoin="round"/>
<path id="Vector_3" d="M14.1288 4H19.7473V8.5H14.1288V4Z" stroke="black" stroke-width="1.2" stroke-linecap="round" stroke-linejoin="round"/>
</g>
</g>
</svg>
