<svg width="136" height="136" viewBox="0 0 136 136" fill="none" xmlns="http://www.w3.org/2000/svg">
<g id="Frame">
<g id="SVGRepo_iconCarrier">
<g id="Planet_sustainability">
<path id="Vector" d="M67.4926 30.3503C46.726 30.3503 29.8323 47.2467 29.8323 68.0133C29.8323 88.7799 46.726 105.676 67.4926 105.676C88.2592 105.676 105.156 88.7799 105.156 68.0133C105.156 47.2467 88.2618 30.3503 67.4926 30.3503ZM34.6135 68.0133C34.6059 62.4068 36.0412 56.8927 38.7812 52.0014C42.4561 54.2018 46.6663 55.3469 50.9495 55.3111C62.1429 55.3111 71.2166 47.9267 71.2166 38.8211C71.2154 37.6289 71.0573 36.442 70.7465 35.291C78.4659 36.0696 85.6626 39.5482 91.0682 45.1137C96.4738 50.6792 99.7413 57.9742 100.295 65.713C94.7165 66.5258 86.344 69.3786 83.7966 78.131C80.8748 88.1583 67.2641 83.6586 65.0515 100.805C56.7813 100.175 49.0531 96.449 43.4105 90.3701C37.7679 84.2912 34.6264 76.3074 34.6135 68.0133Z" fill="white" stroke="white"/>
<path id="Vector_2" d="M67.6494 81.4776C72.7228 81.4776 75.0019 77.9634 75.6181 75.2594C75.6606 75.0777 75.6614 74.8888 75.6206 74.7068C75.5797 74.5248 75.4983 74.3544 75.3823 74.2083C75.2664 74.0622 75.1189 73.9442 74.9509 73.8631C74.7829 73.782 74.5988 73.7399 74.4122 73.74H60.8653C60.6788 73.7399 60.4947 73.782 60.3267 73.8631C60.1587 73.9442 60.0112 74.0622 59.8952 74.2083C59.7793 74.3544 59.6978 74.5248 59.657 74.7068C59.6161 74.8888 59.617 75.0777 59.6594 75.2594C60.2969 77.9634 62.5786 81.4776 67.6494 81.4776Z" fill="white" stroke="white"/>
<path id="Vector_3" d="M57.043 62.8442C56.372 62.8437 55.7159 63.0422 55.1578 63.4146C54.5996 63.787 54.1644 64.3166 53.9073 64.9364C53.6501 65.5561 53.5826 66.2382 53.7132 66.8964C53.8438 67.5546 54.1666 68.1592 54.6409 68.6339C55.1152 69.1085 55.7196 69.4318 56.3776 69.5629C57.0357 69.694 57.7178 69.627 58.3378 69.3704C58.9578 69.1137 59.4877 68.6789 59.8605 68.1211C60.2334 67.5632 60.4324 66.9073 60.4324 66.2363C60.4324 65.3371 60.0754 64.4747 59.4398 63.8387C58.8043 63.2026 57.9422 62.8449 57.043 62.8442Z" fill="white" stroke="white"/>
<path id="Vector_4" d="M78.2584 69.6283C78.9292 69.6283 79.5851 69.4294 80.1429 69.0566C80.7007 68.6839 81.1355 68.1542 81.3922 67.5343C81.6489 66.9145 81.7161 66.2325 81.5852 65.5745C81.4543 64.9165 81.1313 64.3121 80.6569 63.8377C80.1825 63.3634 79.5781 63.0403 78.9201 62.9094C78.2621 62.7785 77.5801 62.8457 76.9603 63.1024C76.3405 63.3592 75.8107 63.7939 75.438 64.3518C75.0653 64.9096 74.8663 65.5654 74.8663 66.2363C74.8663 67.1359 75.2237 67.9987 75.8598 68.6348C76.496 69.2709 77.3587 69.6283 78.2584 69.6283Z" fill="white" stroke="white"/>
<path id="Vector_5" d="M107.352 107.36C114.879 99.6703 120.03 89.9746 122.19 79.4333C124.35 68.892 123.427 57.9516 119.531 47.9213C108.348 19.1807 75.8651 4.8954 47.1218 16.0809L48.8564 20.5381C75.1532 10.3088 104.847 23.3696 115.077 49.6559C118.64 58.8318 119.482 68.8401 117.504 78.4825C115.525 88.125 110.809 96.9927 103.92 104.024L100.52 100.712C100.163 100.363 99.7091 100.127 99.2176 100.036C98.726 99.9449 98.2184 100.002 97.7591 100.199C97.2998 100.396 96.9093 100.726 96.6372 101.145C96.3651 101.564 96.2236 102.055 96.2306 102.555L96.3581 111.557C96.3679 112.226 96.6424 112.863 97.1213 113.33C97.6003 113.796 98.2448 114.054 98.9134 114.046L107.915 113.94C108.415 113.934 108.902 113.779 109.314 113.497C109.726 113.214 110.045 112.815 110.23 112.351C110.415 111.887 110.459 111.378 110.355 110.889C110.252 110.401 110.005 109.954 109.647 109.605L107.352 107.36Z" fill="white" stroke="white"/>
<path id="Vector_6" d="M48.3039 114.484C40.7267 111.158 34.0704 106.042 28.9066 99.5761C23.7429 93.1099 20.2261 85.4867 18.6586 77.3616C17.091 69.2364 17.5195 60.8521 19.9072 52.929C22.2949 45.006 26.5704 37.781 32.3664 31.8749L35.3786 34.7968C35.7364 35.1459 36.1899 35.381 36.6814 35.4722C37.173 35.5635 37.6806 35.5069 38.1399 35.3095C38.5992 35.1121 38.9897 34.7828 39.2618 34.3634C39.5339 33.944 39.6754 33.4532 39.6684 32.9533L39.5409 23.9513C39.5368 23.62 39.4673 23.2928 39.3366 22.9884C39.2059 22.684 39.0165 22.4083 38.7792 22.1772C38.5419 21.946 38.2613 21.7639 37.9535 21.6413C37.6458 21.5186 37.3169 21.4578 36.9856 21.4624L27.9836 21.5686C27.4798 21.57 26.988 21.722 26.5713 22.005C26.1546 22.288 25.832 22.6891 25.6449 23.1568C25.4579 23.6245 25.415 24.1375 25.5217 24.6298C25.6284 25.1221 25.8798 25.5713 26.2437 25.9196L28.9345 28.5413C19.9709 37.6712 14.4091 49.5988 13.177 62.3339C11.9449 75.0691 15.1171 87.8416 22.1642 98.5205C29.2114 109.199 39.7074 117.139 51.901 121.014C64.0946 124.89 77.2483 124.466 89.1676 119.815L87.4358 115.361C81.1791 117.809 74.499 118.992 67.782 118.842C61.0651 118.691 54.4447 117.21 48.3039 114.484Z" fill="white" stroke="white"/>
</g>
</g>
</g>
</svg>
