<svg width="52" height="50" viewBox="0 0 52 50" fill="none" xmlns="http://www.w3.org/2000/svg">
<g id="icon" clip-path="url(#clip0_505_109)">
<g id="SVGRepo_iconCarrier">
<path id="Vector" d="M39 46.875H13C12.1384 46.8741 11.3123 46.5445 10.703 45.9587C10.0937 45.3728 9.75099 44.5785 9.75 43.75V6.25C9.75086 5.42145 10.0935 4.62708 10.7029 4.0412C11.3122 3.45533 12.1383 3.12583 13 3.125H39C39.8617 3.12595 40.6877 3.4555 41.297 4.04134C41.9063 4.62719 42.249 5.42149 42.25 6.25V32.2159L34.125 28.3097L26 32.2159V6.25H13V43.75H39V37.5H42.25V43.75C42.2488 44.5785 41.9061 45.3727 41.2968 45.9585C40.6876 46.5443 39.8616 46.8739 39 46.875ZM34.125 24.8153L39 27.1591V6.25H29.25V27.1591L34.125 24.8153Z" fill="#3D548D"/>
</g>
</g>
<defs>
<clipPath id="clip0_505_109">
<rect width="52" height="50" fill="white"/>
</clipPath>
</defs>
</svg>
