<svg width="222" height="142" viewBox="0 0 222 142" fill="none" xmlns="http://www.w3.org/2000/svg">
<g clip-path="url(#clip0_730_335)">
<path d="M48.1012 126.047C54.4774 126.047 59.6464 120.293 59.6464 113.194C59.6464 106.096 54.4774 100.342 48.1012 100.342C41.7249 100.342 36.5559 106.096 36.5559 113.194C36.5559 120.293 41.7249 126.047 48.1012 126.047Z" fill="#F2F2F2"/>
<path d="M49.9786 124.166C56.3549 124.166 61.5239 118.412 61.5239 111.313C61.5239 104.215 56.3549 98.4609 49.9786 98.4609C43.6023 98.4609 38.4333 104.215 38.4333 111.313C38.4333 118.412 43.6023 124.166 49.9786 124.166Z" fill="#6C63FF"/>
<path d="M202.122 97.0923H59.2764V97.5262H202.122V97.0923Z" fill="#3F3D56"/>
<path d="M133.257 4.04663H82.5552V2.8833H59.5652V4.04663H8.65467C8.20429 4.04663 7.75833 4.14538 7.34223 4.33725C6.92613 4.52912 6.54806 4.81034 6.2296 5.16487C5.91113 5.5194 5.65851 5.94028 5.48616 6.40349C5.31381 6.8667 5.2251 7.36317 5.2251 7.86454V85.1517C5.2251 86.1643 5.58642 87.1354 6.22959 87.8514C6.87276 88.5674 7.74509 88.9697 8.65467 88.9697H133.257C134.166 88.9697 135.039 88.5674 135.682 87.8514C136.325 87.1354 136.686 86.1643 136.686 85.1517V7.86454C136.686 7.36317 136.598 6.8667 136.425 6.40349C136.253 5.94028 136 5.5194 135.682 5.16487C135.363 4.81034 134.985 4.52912 134.569 4.33725C134.153 4.14538 133.707 4.04663 133.257 4.04663Z" fill="#3F3D56"/>
<path d="M132.088 10.7939H9.823V87.5737H132.088V10.7939Z" fill="#6C63FF"/>
<path d="M70.8512 8.6997C71.5437 8.6997 72.1052 8.0747 72.1052 7.30371C72.1052 6.53272 71.5437 5.90771 70.8512 5.90771C70.1586 5.90771 69.5972 6.53272 69.5972 7.30371C69.5972 8.0747 70.1586 8.6997 70.8512 8.6997Z" fill="#6C63FF"/>
<path opacity="0.1" d="M97.1224 87.5737H9.823V10.7939L97.1224 87.5737Z" fill="black"/>
<path d="M28.9539 81.8282C35.4446 81.8282 40.7064 75.9706 40.7064 68.7449C40.7064 61.5192 35.4446 55.6616 28.9539 55.6616C22.4632 55.6616 17.2014 61.5192 17.2014 68.7449C17.2014 75.9706 22.4632 81.8282 28.9539 81.8282Z" fill="#F2F2F2"/>
<path d="M110.8 52.2017H99.3789V54.8583H110.8V52.2017Z" fill="#3F3D56"/>
<path d="M124.607 31.5176H85.5715V32.6562H124.607V31.5176Z" fill="#3F3D56"/>
<path d="M124.607 35.123H85.5715V36.2616H124.607V35.123Z" fill="#3F3D56"/>
<path d="M124.607 38.7285H85.5715V39.8671H124.607V38.7285Z" fill="#3F3D56"/>
<path d="M124.607 42.334H85.5715V43.4726H124.607V42.334Z" fill="#3F3D56"/>
<path d="M124.607 45.9395H85.5715V47.078H124.607V45.9395Z" fill="#3F3D56"/>
<path d="M124.607 12.3516H119.834V17.6649H124.607V12.3516Z" fill="#F2F2F2"/>
<path d="M126.823 20.1316H121.027V13.6797H126.823V20.1316ZM121.279 19.8511H126.571V13.9602H121.279V19.8511Z" fill="#3F3D56"/>
<path d="M140.119 86.1776H128.187V85.2205C128.187 85.1956 128.182 85.1709 128.174 85.1479C128.165 85.1249 128.153 85.104 128.137 85.0863C128.121 85.0687 128.102 85.0547 128.082 85.0452C128.061 85.0357 128.039 85.0308 128.016 85.0308H123.925C123.903 85.0308 123.881 85.0357 123.86 85.0452C123.839 85.0547 123.821 85.0687 123.805 85.0863C123.789 85.104 123.776 85.1249 123.768 85.1479C123.759 85.1709 123.755 85.1956 123.755 85.2205V86.1776H121.198V85.2205C121.198 85.1956 121.193 85.1709 121.185 85.1479C121.176 85.1249 121.164 85.104 121.148 85.0863C121.132 85.0687 121.113 85.0547 121.093 85.0452C121.072 85.0357 121.05 85.0308 121.027 85.0308H116.936C116.914 85.0308 116.892 85.0357 116.871 85.0452C116.85 85.0547 116.832 85.0687 116.816 85.0863C116.8 85.104 116.787 85.1249 116.779 85.1479C116.77 85.1709 116.766 85.1956 116.766 85.2205V86.1776H114.209V85.2205C114.209 85.1956 114.205 85.1709 114.196 85.1479C114.187 85.1249 114.175 85.104 114.159 85.0863C114.143 85.0687 114.124 85.0547 114.104 85.0452C114.083 85.0357 114.061 85.0308 114.039 85.0308H109.947C109.925 85.0308 109.903 85.0357 109.882 85.0452C109.862 85.0547 109.843 85.0687 109.827 85.0863C109.811 85.104 109.799 85.1249 109.79 85.1479C109.781 85.1709 109.777 85.1956 109.777 85.2205V86.1776H107.22V85.2205C107.22 85.1956 107.216 85.1709 107.207 85.1479C107.199 85.1249 107.186 85.104 107.17 85.0863C107.154 85.0687 107.136 85.0547 107.115 85.0452C107.094 85.0357 107.072 85.0308 107.05 85.0308H102.959C102.936 85.0308 102.914 85.0357 102.893 85.0452C102.873 85.0547 102.854 85.0687 102.838 85.0863C102.822 85.104 102.81 85.1249 102.801 85.1479C102.792 85.1709 102.788 85.1956 102.788 85.2205V86.1776H100.231V85.2205C100.231 85.1956 100.227 85.1709 100.218 85.1479C100.21 85.1249 100.197 85.104 100.181 85.0863C100.165 85.0687 100.147 85.0547 100.126 85.0452C100.105 85.0357 100.083 85.0308 100.061 85.0308H95.9696C95.9473 85.0308 95.9251 85.0357 95.9044 85.0452C95.8837 85.0547 95.8649 85.0687 95.8491 85.0863C95.8333 85.104 95.8207 85.1249 95.8122 85.1479C95.8036 85.1709 95.7992 85.1956 95.7992 85.2205V86.1776H93.2423V85.2205C93.2423 85.1956 93.2379 85.1709 93.2293 85.1479C93.2207 85.1249 93.2082 85.104 93.1923 85.0863C93.1765 85.0687 93.1577 85.0547 93.137 85.0452C93.1163 85.0357 93.0942 85.0308 93.0718 85.0308H88.9807C88.9584 85.0308 88.9362 85.0357 88.9155 85.0452C88.8948 85.0547 88.876 85.0687 88.8602 85.0863C88.8444 85.104 88.8318 85.1249 88.8232 85.1479C88.8147 85.1709 88.8103 85.1956 88.8103 85.2205V86.1776H86.2533V85.2205C86.2533 85.1956 86.2489 85.1709 86.2404 85.1479C86.2318 85.1249 86.2193 85.104 86.2034 85.0863C86.1876 85.0687 86.1688 85.0547 86.1481 85.0452C86.1274 85.0357 86.1053 85.0308 86.0829 85.0308H54.0362C54.0138 85.0308 53.9916 85.0357 53.971 85.0452C53.9503 85.0547 53.9315 85.0687 53.9157 85.0863C53.8998 85.104 53.8873 85.1249 53.8787 85.1479C53.8701 85.1709 53.8657 85.1956 53.8657 85.2205V86.1776H51.3088V85.2205C51.3088 85.1956 51.3044 85.1709 51.2958 85.1479C51.2873 85.1249 51.2747 85.104 51.2589 85.0863C51.2431 85.0687 51.2243 85.0547 51.2036 85.0452C51.1829 85.0357 51.1607 85.0308 51.1384 85.0308H47.0473C47.0249 85.0308 47.0027 85.0357 46.982 85.0452C46.9614 85.0547 46.9426 85.0687 46.9267 85.0863C46.9109 85.104 46.8984 85.1249 46.8898 85.1479C46.8812 85.1709 46.8768 85.1956 46.8768 85.2205V86.1776H44.3199V85.2205C44.3199 85.1956 44.3155 85.1709 44.3069 85.1479C44.2984 85.1249 44.2858 85.104 44.27 85.0863C44.2541 85.0687 44.2354 85.0547 44.2147 85.0452C44.194 85.0357 44.1718 85.0308 44.1494 85.0308H40.0584C40.036 85.0308 40.0138 85.0357 39.9931 85.0452C39.9725 85.0547 39.9537 85.0687 39.9378 85.0863C39.922 85.104 39.9095 85.1249 39.9009 85.1479C39.8923 85.1709 39.8879 85.1956 39.8879 85.2205V86.1776H37.331V85.2205C37.331 85.1956 37.3266 85.1709 37.318 85.1479C37.3095 85.1249 37.2969 85.104 37.2811 85.0863C37.2652 85.0687 37.2464 85.0547 37.2258 85.0452C37.2051 85.0357 37.1829 85.0308 37.1605 85.0308H33.0695C33.0471 85.0308 33.0249 85.0357 33.0042 85.0452C32.9836 85.0547 32.9648 85.0687 32.9489 85.0863C32.9331 85.104 32.9205 85.1249 32.912 85.1479C32.9034 85.1709 32.899 85.1956 32.899 85.2205V86.1776H30.3421V85.2205C30.3421 85.1956 30.3377 85.1709 30.3291 85.1479C30.3206 85.1249 30.308 85.104 30.2922 85.0863C30.2763 85.0687 30.2575 85.0547 30.2369 85.0452C30.2162 85.0357 30.194 85.0308 30.1716 85.0308H26.0806C26.0582 85.0308 26.036 85.0357 26.0153 85.0452C25.9946 85.0547 25.9758 85.0687 25.96 85.0863C25.9442 85.104 25.9316 85.1249 25.9231 85.1479C25.9145 85.1709 25.9101 85.1956 25.9101 85.2205V86.1776H23.3532V85.2205C23.3532 85.1956 23.3488 85.1709 23.3402 85.1479C23.3316 85.1249 23.3191 85.104 23.3033 85.0863C23.2874 85.0687 23.2686 85.0547 23.248 85.0452C23.2273 85.0357 23.2051 85.0308 23.1827 85.0308H19.0917C19.0693 85.0308 19.0471 85.0357 19.0264 85.0452C19.0057 85.0547 18.9869 85.0687 18.9711 85.0863C18.9553 85.104 18.9427 85.1249 18.9342 85.1479C18.9256 85.1709 18.9212 85.1956 18.9212 85.2205V86.1776H16.3643V85.2205C16.3643 85.1956 16.3599 85.1709 16.3513 85.1479C16.3427 85.1249 16.3302 85.104 16.3143 85.0863C16.2985 85.0687 16.2797 85.0547 16.259 85.0452C16.2384 85.0357 16.2162 85.0308 16.1938 85.0308H12.1027C12.0804 85.0308 12.0582 85.0357 12.0375 85.0452C12.0168 85.0547 11.998 85.0687 11.9822 85.0863C11.9664 85.104 11.9538 85.1249 11.9453 85.1479C11.9367 85.1709 11.9323 85.1956 11.9323 85.2205V86.1776H4.09107C3.00605 86.1776 1.96547 86.6574 1.19825 87.5115C0.431023 88.3656 1.0337e-06 89.524 0 90.7319V92.7913C3.10109e-06 93.9991 0.431027 95.1575 1.19825 96.0116C1.96547 96.8657 3.00605 97.3455 4.09107 97.3455H140.119C141.204 97.3455 142.245 96.8657 143.012 96.0116C143.779 95.1575 144.21 93.9991 144.21 92.7913V90.7319C144.21 89.524 143.779 88.3656 143.012 87.5115C142.245 86.6574 141.204 86.1776 140.119 86.1776Z" fill="#3F3D56"/>
<path d="M31.7986 76.9166C28.8693 76.9166 26.0058 75.9496 23.5701 74.1379C21.1345 72.3262 19.2362 69.7511 18.1152 66.7384C16.9942 63.7256 16.7009 60.4105 17.2724 57.2121C17.8439 54.0138 19.2544 51.076 21.3258 48.7701C23.3971 46.4642 26.0361 44.8939 28.9091 44.2577C31.7821 43.6215 34.7601 43.9481 37.4664 45.196C40.1727 46.4439 42.4858 48.5572 44.1133 51.2686C45.7407 53.98 46.6093 57.1678 46.6093 60.4288C46.6049 64.8001 45.0431 68.991 42.2665 72.082C39.4899 75.173 35.7253 76.9116 31.7986 76.9166ZM31.7986 44.3748C28.9464 44.3748 26.1582 45.3164 23.7867 47.0804C21.4152 48.8444 19.5668 51.3517 18.4753 54.2852C17.3838 57.2187 17.0982 60.4466 17.6547 63.5607C18.2111 66.6749 19.5846 69.5354 21.6014 71.7806C23.6182 74.0258 26.1878 75.5548 28.9852 76.1742C31.7826 76.7937 34.6822 76.4758 37.3173 75.2607C39.9524 74.0456 42.2046 71.9879 43.7892 69.3479C45.3738 66.7078 46.2196 63.6039 46.2196 60.4288C46.2153 56.1725 44.6945 52.0919 41.991 49.0822C39.2875 46.0726 35.6219 44.3796 31.7986 44.3748Z" fill="#3F3D56"/>
<path d="M163.926 7.06006H114.232V7.49395H163.926V7.06006Z" fill="#3F3D56"/>
<path d="M222 121.607H79.1541V122.041H222V121.607Z" fill="#3F3D56"/>
<path d="M87.2416 141.566H37.5476V142H87.2416V141.566Z" fill="#3F3D56"/>
<path d="M97.2444 119.32H91.7878V125.394H97.2444V119.32Z" fill="#6C63FF"/>
<path d="M100.557 121.923H93.9314V114.547H100.557V121.923ZM94.2195 121.602H100.269V114.868H94.2195V121.602Z" fill="#3F3D56"/>
<path d="M160.58 4.77295H155.123V10.8474H160.58V4.77295Z" fill="#6C63FF"/>
<path d="M163.893 7.37614H157.267V0H163.893V7.37614ZM157.555 7.05544H163.605V0.320702H157.555V7.05544Z" fill="#3F3D56"/>
<path d="M215.536 119.32H210.079V125.394H215.536V119.32Z" fill="#6C63FF"/>
<path d="M218.849 121.923H212.223V114.547H218.849V121.923ZM212.511 121.602H218.56V114.868H212.511V121.602Z" fill="#3F3D56"/>
<path d="M206.02 50.3222H205.557V36.1857C205.557 35.1113 205.366 34.0473 204.997 33.0547C204.628 32.062 204.086 31.16 203.404 30.4003C202.721 29.6405 201.911 29.0379 201.019 28.6267C200.128 28.2155 199.172 28.0039 198.207 28.0039H171.303C170.338 28.0039 169.382 28.2155 168.491 28.6267C167.599 29.0379 166.789 29.6405 166.106 30.4003C165.424 31.16 164.882 32.062 164.513 33.0547C164.144 34.0473 163.954 35.1113 163.954 36.1857V113.74C163.954 114.814 164.144 115.878 164.513 116.871C164.882 117.863 165.424 118.765 166.106 119.525C166.789 120.285 167.599 120.887 168.491 121.299C169.382 121.71 170.338 121.921 171.303 121.921H198.207C199.172 121.921 200.128 121.71 201.019 121.299C201.911 120.887 202.721 120.285 203.404 119.525C204.086 118.765 204.628 117.863 204.997 116.871C205.366 115.878 205.557 114.814 205.557 113.74V60.3848H206.02V50.3222Z" fill="#3F3D56"/>
<path d="M203.991 36.6668V114.108C203.992 115.728 203.414 117.282 202.384 118.428C201.355 119.575 199.959 120.219 198.503 120.219H171.47C170.014 120.219 168.618 119.575 167.589 118.428C166.56 117.282 165.982 115.728 165.982 114.108V36.6668C165.982 35.0466 166.561 33.4928 167.59 32.3471C168.619 31.2015 170.015 30.5578 171.47 30.5576H174.75C174.588 30.9984 174.527 31.4765 174.57 31.95C174.614 32.4235 174.762 32.8777 175 33.2727C175.239 33.6678 175.561 33.9914 175.938 34.2152C176.316 34.4389 176.737 34.5559 177.164 34.5559H192.577C193.005 34.5559 193.426 34.4389 193.803 34.2152C194.181 33.9914 194.503 33.6678 194.741 33.2728C194.98 32.8777 195.127 32.4235 195.171 31.95C195.215 31.4765 195.153 30.9984 194.992 30.5576H198.504C199.959 30.5578 201.355 31.2015 202.384 32.3471C203.413 33.4928 203.991 35.0466 203.991 36.6668Z" fill="#6C63FF"/>
<path d="M189.013 81.6187H180.96V84.2753H189.013V81.6187Z" fill="#3F3D56"/>
<path d="M198.749 60.9346H171.225V62.0731H198.749V60.9346Z" fill="#3F3D56"/>
<path d="M198.749 64.54H171.225V65.6786H198.749V64.54Z" fill="#3F3D56"/>
<path d="M198.749 68.1455H171.225V69.2841H198.749V68.1455Z" fill="#3F3D56"/>
<path d="M198.749 71.751H171.225V72.8896H198.749V71.751Z" fill="#3F3D56"/>
<path d="M198.749 75.3564H171.225V76.495H198.749V75.3564Z" fill="#3F3D56"/>
<path d="M185.948 45.8145H181.175V51.1278H185.948V45.8145Z" fill="#F2F2F2"/>
<path d="M183.002 47.1431V53.595H188.798V47.1431H183.002ZM188.547 53.3152H183.254V47.4229H188.547V53.3152Z" fill="#3F3D56"/>
<path opacity="0.1" d="M203.991 105.837V114.107C203.992 115.728 203.414 117.282 202.384 118.428C201.355 119.574 199.959 120.218 198.503 120.219H171.47C170.014 120.218 168.618 119.574 167.589 118.428C166.56 117.282 165.982 115.728 165.982 114.107V72.4082L188.758 92.4387L189.147 92.7815L193.384 96.5065L193.78 96.8558L203.991 105.837Z" fill="black"/>
<path d="M182.648 117.709C187.37 117.709 191.197 113.448 191.197 108.192C191.197 102.936 187.37 98.6753 182.648 98.6753C177.927 98.6753 174.099 102.936 174.099 108.192C174.099 113.448 177.927 117.709 182.648 117.709Z" fill="#F2F2F2"/>
<path d="M62.3946 142C59.0414 142 55.7634 140.893 52.9752 138.819C50.1871 136.745 48.014 133.797 46.7308 130.349C45.4475 126.9 45.1118 123.105 45.766 119.444C46.4202 115.782 48.0349 112.419 50.406 109.78C52.7772 107.14 55.7981 105.342 59.087 104.614C62.3758 103.886 65.7848 104.26 68.8828 105.688C71.9808 107.117 74.6288 109.536 76.4917 112.64C78.3547 115.744 79.3491 119.393 79.3491 123.126C79.344 128.13 77.5561 132.927 74.3776 136.466C71.1991 140.004 66.8897 141.994 62.3946 142ZM62.3946 104.685C59.1184 104.685 55.9158 105.767 53.1918 107.793C50.4677 109.819 48.3446 112.699 47.0909 116.069C45.8371 119.438 45.5091 123.146 46.1482 126.723C46.7874 130.3 48.365 133.586 50.6816 136.165C52.9982 138.744 55.9498 140.5 59.163 141.212C62.3763 141.923 65.7069 141.558 68.7337 140.162C71.7605 138.767 74.3475 136.403 76.1677 133.371C77.9878 130.338 78.9593 126.773 78.9593 123.126C78.9543 118.237 77.2075 113.55 74.1021 110.093C70.9967 106.635 66.7863 104.691 62.3946 104.685Z" fill="#3F3D56"/>
<path d="M185.168 115.533C183.048 115.533 180.976 114.833 179.213 113.522C177.451 112.211 176.077 110.347 175.266 108.167C174.454 105.987 174.242 103.588 174.656 101.273C175.069 98.9585 176.09 96.8325 177.589 95.1637C179.088 93.495 180.998 92.3586 183.077 91.8982C185.156 91.4378 187.311 91.6741 189.27 92.5772C191.228 93.4803 192.902 95.0097 194.08 96.9719C195.258 98.9341 195.886 101.241 195.886 103.601C195.883 106.764 194.753 109.797 192.743 112.034C190.734 114.271 188.01 115.529 185.168 115.533ZM185.168 92.1028C183.125 92.1028 181.128 92.7772 179.43 94.0406C177.731 95.304 176.407 97.0998 175.626 99.2008C174.844 101.302 174.639 103.614 175.038 105.844C175.436 108.075 176.42 110.123 177.865 111.731C179.309 113.339 181.149 114.434 183.153 114.878C185.157 115.322 187.233 115.094 189.121 114.224C191.008 113.354 192.621 111.88 193.756 109.989C194.891 108.098 195.497 105.875 195.497 103.601C195.494 100.552 194.404 97.6299 192.468 95.4743C190.532 93.3188 187.906 92.1063 185.168 92.1028Z" fill="#3F3D56"/>
</g>
<defs>
<clipPath id="clip0_730_335">
<rect width="222" height="142" fill="white"/>
</clipPath>
</defs>
</svg>
