<svg width="676" height="538" viewBox="0 0 676 538" fill="none" xmlns="http://www.w3.org/2000/svg">
<g clip-path="url(#clip0_730_90)">
<path d="M593.809 522.067L579.755 522.066L573.07 467.912L593.811 467.914L593.809 522.067Z" fill="#FFB6B6"/>
<path d="M594.303 536.713L551.088 536.711V536.165C551.089 526.885 558.619 519.362 567.908 519.361L575.803 513.378L590.531 519.362L594.304 519.362L594.303 536.713Z" fill="#2F2E41"/>
<path d="M531.506 522.067L517.453 522.066L510.768 467.912L531.509 467.914L531.506 522.067Z" fill="#FFB6B6"/>
<path d="M532 536.713L488.785 536.711V536.165C488.786 526.885 496.316 519.362 505.606 519.361L513.501 513.378L528.229 519.362L532.001 519.362L532 536.713Z" fill="#2F2E41"/>
<path d="M524.809 219.849L605.888 221.555C605.888 221.555 620.464 245.429 609.335 279.108L610.582 288.487L605.461 302.982L602.901 347.319L605.461 354.14L603.754 366.929C603.754 366.929 610.582 451.341 593.513 493.973L573.03 493.12L565.349 381.891L569.616 373.751L568.762 370.34L558.521 319.182L548.28 345.613V360.3L538.891 371.193C538.891 371.193 542.305 471.804 532.917 492.267H509.985L501.339 355.845L509.874 276.55L508.167 271.434L510.727 268.876L509.02 260.35L524.809 219.849Z" fill="#2F2E41"/>
<path d="M559.374 64.2429L584.125 58.2744L590.952 74.4745C590.952 74.4745 626.277 93.2326 627.984 118.812C627.984 118.812 632.772 139.275 628.504 148.654C624.237 158.033 606.314 187.875 606.314 187.875C606.314 187.875 622.53 239.886 618.263 242.444C613.996 245.002 512.434 239.886 512.434 234.771C512.434 229.655 529.337 175.938 529.337 175.938L532.917 83.8536L555.96 75.3272L559.374 64.2429Z" fill="#3F3D56"/>
<path d="M625.357 274.133C620.177 271.524 618.094 265.215 620.704 260.04C620.966 259.519 621.276 259.038 621.609 258.582L607.836 164.249L626.903 164.858L636.877 256.771C640.492 259.834 641.691 265.068 639.463 269.483C636.853 274.659 630.538 276.74 625.357 274.133Z" fill="#FFB6B6"/>
<path d="M444.441 229.61C442.356 224.203 445.053 218.13 450.465 216.046C451.01 215.836 451.562 215.688 452.116 215.573L505.319 136.434L519.037 149.677L464.647 224.474C465.266 229.169 462.637 233.851 458.018 235.629C452.606 237.713 446.527 235.018 444.441 229.61Z" fill="#FFB6B6"/>
<path d="M590.613 140.455C585.226 121.965 594.174 103.101 613.449 103.192C619.021 103.218 623.349 104.833 624.549 109.304C628.748 124.952 631.037 148.572 631.037 148.572L636.018 173.72L633.001 178.942L639.29 195.795L636.24 203.768L635.58 244.485L620.218 243.632L603.291 212.592L596.819 208.748C596.819 208.748 602.016 158.561 591.679 144.111L590.613 140.455Z" fill="#3F3D56"/>
<path d="M521.802 94.9511C530.785 77.9127 553.782 73.8768 567.584 87.3207C571.573 91.2065 573.563 95.3723 571.317 99.4207C563.456 113.59 545.234 128.846 545.234 128.846L522.794 164.886L516.993 166.548L509.797 183.035L494.377 201.148L473.953 211.908L462.005 199.971L464.542 184.627L495.29 143.697C495.29 143.697 517.413 115.888 520.026 98.32L521.802 94.9511Z" fill="#3F3D56"/>
<path d="M564.077 59.2595C564.642 59.3274 565.206 59.3784 565.767 59.4039C567.511 59.4995 569.234 59.4001 570.895 59.1188C575.941 58.3108 580.525 55.9231 584.062 52.4216C587.802 48.7268 590.361 43.7953 591.053 38.1812C592.674 24.9293 583.229 12.8578 569.964 11.2386C556.89 9.63325 544.972 18.7689 543.069 31.7165C543.039 31.917 543.009 32.109 542.987 32.3085C541.367 45.5688 550.803 57.6328 564.077 59.2595Z" fill="#FFB6B6"/>
<path d="M537.615 30.8294C541.051 32.527 546.666 27.1901 548.816 30.2607C549.165 29.5971 549.551 28.9554 549.932 28.3485C550.277 27.8054 550.77 26.6462 551.341 26.4477C550.619 28.1889 550.778 30.5472 551.528 32.5677C554.917 33.8329 559.354 31.0323 562.491 27.7195C567.417 22.5252 575.46 35.845 573.558 42.7382C575.979 39.7855 581.231 41.4509 583.011 44.8271C584.79 48.1948 581.784 50.8932 581.141 54.6497L585.993 54.0341C589.055 51.0553 588.841 46.0359 591.362 42.5835C595.572 36.8057 597.204 30.9105 594.038 24.9476C591.231 19.6752 590.968 12.8515 585.817 9.8118C588.068 8.71244 580.064 10.4299 582.201 6.8472C584.349 3.27201 572.903 2.83807 572.156 4.75346C568.885 0.842785 565.586 -1.7356 561.563 1.39797C557.612 4.4809 558.021 7.72141 553.38 7.43101C551.202 7.29622 551.441 11.3525 550.147 13.121C548.86 14.88 543.857 16.0092 543.613 15.8209C542.292 14.7881 537.796 23.5808 537.796 23.5808C537.796 23.5808 534.151 29.1092 537.615 30.8294Z" fill="#2F2E41"/>
<path d="M234.771 184.296C316.075 184.296 381.985 250.142 381.985 331.368C381.985 412.594 316.075 478.441 234.771 478.441C153.467 478.441 40.945 397.908 87.5567 331.368C134.168 264.828 153.467 184.296 234.771 184.296Z" fill="#F2F2F2"/>
<path d="M431.806 191.292C430.486 191.292 429.412 192.365 429.412 193.684V270.209C429.412 271.528 430.486 272.601 431.806 272.601C433.126 272.601 434.2 271.528 434.2 270.209V193.684C434.2 192.365 433.126 191.292 431.806 191.292Z" fill="#3F3D56"/>
<path d="M29.6603 133.898C28.3402 133.898 27.2666 134.97 27.2666 136.289V155.421C27.2666 156.74 28.3402 157.812 29.6603 157.812C30.9805 157.812 32.054 156.74 32.054 155.421V136.289C32.054 134.97 30.9805 133.898 29.6603 133.898Z" fill="#3F3D56"/>
<path d="M29.6603 191.292C28.3402 191.292 27.2666 192.365 27.2666 193.684V230.751C27.2666 232.07 28.3402 233.142 29.6603 233.142C30.9805 233.142 32.054 232.07 32.054 230.751V193.684C32.054 192.365 30.9805 191.292 29.6603 191.292Z" fill="#3F3D56"/>
<path d="M29.6603 243.904C28.3402 243.904 27.2666 244.976 27.2666 246.295V283.362C27.2666 284.681 28.3402 285.754 29.6603 285.754C30.9805 285.754 32.054 284.681 32.054 283.362V246.295C32.054 244.976 30.9805 243.904 29.6603 243.904Z" fill="#3F3D56"/>
<path d="M244.346 58.5681C243.025 58.5681 241.952 59.6406 241.952 60.9595V98.0266C241.952 99.3455 243.025 100.418 244.346 100.418C245.666 100.418 246.739 99.3455 246.739 98.0266V60.9595C246.739 59.6406 245.666 58.5681 244.346 58.5681Z" fill="#3F3D56"/>
<path d="M611.059 517.275C613.532 517.429 614.899 514.36 613.028 512.572L612.842 511.832C612.866 511.773 612.891 511.714 612.916 511.655C615.416 505.698 623.891 505.739 626.37 511.705C628.571 517 631.372 522.304 632.062 527.902C632.371 530.373 632.232 532.891 631.683 535.316C636.839 524.064 639.553 511.777 639.553 499.42C639.553 496.315 639.383 493.21 639.035 490.114C638.749 487.58 638.355 485.063 637.844 482.568C635.085 469.084 629.109 456.241 620.49 445.514C616.346 443.251 612.891 439.714 610.804 435.474C610.054 433.945 609.466 432.3 609.188 430.624C609.66 430.686 610.966 423.511 610.61 423.071C611.268 422.074 612.444 421.579 613.161 420.607C616.731 415.772 621.649 416.617 624.216 423.187C629.7 425.952 629.753 430.538 626.388 434.949C624.247 437.755 623.953 441.552 622.075 444.556C622.268 444.803 622.469 445.042 622.662 445.29C626.206 449.831 629.271 454.712 631.855 459.84C631.125 454.141 632.203 447.275 634.041 442.849C636.134 437.806 640.055 433.559 643.509 429.2C647.657 423.964 656.164 426.249 656.895 432.887C656.902 432.951 656.909 433.015 656.915 433.08C656.402 433.369 655.9 433.676 655.409 434C652.609 435.85 653.577 440.187 656.894 440.698L656.969 440.71C656.784 442.556 656.467 444.386 656.003 446.185C660.434 463.303 650.869 469.538 637.211 469.818C636.909 469.972 636.615 470.127 636.314 470.273C637.698 474.166 638.803 478.159 639.623 482.205C640.357 485.781 640.867 489.395 641.153 493.025C641.509 497.605 641.478 502.208 641.091 506.78L641.115 506.618C642.096 501.582 644.833 496.879 648.806 493.62C654.726 488.762 663.088 486.973 669.474 483.069C672.548 481.189 676.487 483.618 675.95 487.178L675.924 487.349C674.974 487.735 674.046 488.183 673.149 488.685C672.636 488.974 672.134 489.281 671.643 489.605C668.843 491.456 669.81 495.792 673.128 496.304L673.203 496.315C673.257 496.323 673.304 496.331 673.358 496.338C671.727 500.207 669.454 503.799 666.609 506.896C663.839 521.839 651.94 523.256 639.213 518.905H639.205C637.814 524.96 635.781 530.875 633.168 536.513H611.6C611.523 536.274 611.453 536.027 611.383 535.787C613.378 535.911 615.388 535.795 617.351 535.432C615.751 533.47 614.151 531.493 612.551 529.532C612.512 529.493 612.481 529.454 612.45 529.416C611.639 528.412 610.819 527.416 610.008 526.412L610.007 526.41C609.956 523.328 610.327 520.256 611.059 517.275Z" fill="#F2F2F2"/>
<path d="M0 536.577C0 537.366 0.634373 538 1.42434 538H674.408C675.198 538 675.832 537.366 675.832 536.577C675.832 535.788 675.198 535.154 674.408 535.154H1.42434C0.634373 535.154 0 535.788 0 536.577Z" fill="#CCCCCC"/>
<path d="M170.404 321.455H87.5566V319.063H170.404C177.601 319.063 183.456 313.213 183.456 306.022V250.06H185.85V306.022C185.85 314.531 178.921 321.455 170.404 321.455Z" fill="#6C63FF"/>
<path d="M328.485 442.766H140.056V445.157H328.485V442.766Z" fill="#6C63FF"/>
<path d="M448.037 305.464H347.391C341.959 305.464 337.541 301.05 337.541 295.623V196.3C337.541 190.874 341.959 186.46 347.391 186.46H448.037C453.468 186.46 457.887 190.874 457.887 196.3V295.623C457.887 301.05 453.468 305.464 448.037 305.464Z" fill="#E6E6E6"/>
<path d="M366.134 189.392C351.963 189.392 340.475 200.868 340.475 215.026V293.516C340.475 298.495 344.516 302.532 349.5 302.532H411.042C435.293 302.532 454.952 282.892 454.952 258.664V198.408C454.952 193.428 450.912 189.392 445.928 189.392L366.134 189.392Z" fill="white"/>
<path d="M424.67 218.255H370.547C369.514 218.255 368.674 217.416 368.674 216.384C368.674 215.353 369.515 214.514 370.547 214.514H424.67C425.702 214.514 426.542 215.353 426.542 216.384C426.542 217.416 425.702 218.255 424.67 218.255Z" fill="#E6E6E6"/>
<path d="M424.67 258.149H370.547C369.514 258.149 368.674 257.309 368.674 256.278C368.674 255.246 369.515 254.407 370.547 254.407H424.67C425.702 254.407 426.542 255.246 426.542 256.278C426.542 257.309 425.702 258.149 424.67 258.149Z" fill="#E6E6E6"/>
<path d="M446.648 238.215H348.569C347.536 238.215 346.696 237.376 346.696 236.344C346.696 235.313 347.536 234.474 348.569 234.474H446.648C447.68 234.474 448.52 235.313 448.52 236.344C448.52 237.376 447.68 238.215 446.648 238.215Z" fill="#E6E6E6"/>
<path d="M447.649 274.369H412.218C411.185 274.369 410.345 273.53 410.345 272.498C410.345 271.467 411.185 270.628 412.218 270.628H447.649C448.682 270.628 449.522 271.467 449.522 272.498C449.522 273.53 448.682 274.369 447.649 274.369Z" fill="#E6E6E6"/>
<path d="M236.633 503.36H156.713C152.4 503.36 148.892 499.854 148.892 495.546V416.676C148.892 412.368 152.4 408.862 156.713 408.862H236.633C240.946 408.862 244.455 412.368 244.455 416.676V495.546C244.455 499.854 240.946 503.36 236.633 503.36Z" fill="#E6E6E6"/>
<path d="M171.597 411.19C160.344 411.19 151.222 420.304 151.222 431.546V493.872C151.222 497.826 154.43 501.032 158.388 501.032H207.257C226.514 501.032 242.124 485.436 242.124 466.198V418.35C242.124 414.396 238.916 411.19 234.958 411.19L171.597 411.19Z" fill="white"/>
<path d="M218.078 434.11H175.101C174.281 434.11 173.614 433.444 173.614 432.624C173.614 431.805 174.281 431.139 175.101 431.139H218.078C218.898 431.139 219.565 431.805 219.565 432.624C219.565 433.444 218.898 434.11 218.078 434.11Z" fill="#E6E6E6"/>
<path d="M218.078 465.788H175.101C174.281 465.788 173.614 465.122 173.614 464.302C173.614 463.483 174.281 462.817 175.101 462.817H218.078C218.898 462.817 219.565 463.483 219.565 464.302C219.565 465.122 218.898 465.788 218.078 465.788Z" fill="#E6E6E6"/>
<path d="M235.53 449.96H157.649C156.829 449.96 156.162 449.293 156.162 448.474C156.162 447.655 156.829 446.989 157.649 446.989H235.53C236.35 446.989 237.017 447.655 237.017 448.474C237.017 449.293 236.35 449.96 235.53 449.96Z" fill="#E6E6E6"/>
<path d="M236.325 478.668H208.19C207.371 478.668 206.703 478.002 206.703 477.183C206.703 476.364 207.371 475.698 208.19 475.698H236.325C237.145 475.698 237.812 476.364 237.812 477.183C237.812 478.002 237.145 478.668 236.325 478.668Z" fill="#E6E6E6"/>
<path d="M180.774 249.456H121.67C118.48 249.456 115.885 246.864 115.885 243.677V185.35C115.885 182.164 118.48 179.571 121.67 179.571H180.774C183.964 179.571 186.558 182.164 186.558 185.35V243.677C186.558 246.864 183.964 249.456 180.774 249.456Z" fill="#E6E6E6"/>
<path d="M132.677 181.293C124.355 181.293 117.609 188.033 117.609 196.347V242.44C117.609 245.364 119.981 247.734 122.908 247.734H159.049C173.29 247.734 184.835 236.201 184.835 221.973V186.588C184.835 183.663 182.462 181.293 179.535 181.293L132.677 181.293Z" fill="white"/>
<path d="M167.051 198.243H135.268C134.662 198.243 134.168 197.75 134.168 197.145C134.168 196.539 134.662 196.046 135.268 196.046H167.051C167.658 196.046 168.151 196.539 168.151 197.145C168.151 197.75 167.658 198.243 167.051 198.243Z" fill="#E6E6E6"/>
<path d="M167.051 221.671H135.268C134.662 221.671 134.168 221.178 134.168 220.572C134.168 219.966 134.662 219.473 135.268 219.473H167.051C167.658 219.473 168.151 219.966 168.151 220.572C168.151 221.178 167.658 221.671 167.051 221.671Z" fill="#E6E6E6"/>
<path d="M179.958 209.965H122.361C121.755 209.965 121.262 209.472 121.262 208.866C121.262 208.26 121.755 207.768 122.361 207.768H179.958C180.565 207.768 181.058 208.26 181.058 208.866C181.058 209.472 180.565 209.965 179.958 209.965Z" fill="#E6E6E6"/>
<path d="M180.546 231.196H159.739C159.133 231.196 158.64 230.703 158.64 230.097C158.64 229.491 159.133 228.999 159.739 228.999H180.546C181.153 228.999 181.646 229.491 181.646 230.097C181.646 230.703 181.153 231.196 180.546 231.196Z" fill="#E6E6E6"/>
<path d="M353.26 322.998C359.87 322.998 365.229 317.645 365.229 311.041C365.229 304.438 359.87 299.084 353.26 299.084C346.65 299.084 341.292 304.438 341.292 311.041C341.292 317.645 346.65 322.998 353.26 322.998Z" fill="#6C63FF"/>
<path d="M184.503 262.017C191.113 262.017 196.471 256.664 196.471 250.06C196.471 243.456 191.113 238.103 184.503 238.103C177.892 238.103 172.534 243.456 172.534 250.06C172.534 256.664 177.892 262.017 184.503 262.017Z" fill="#6C63FF"/>
<path d="M241.952 425.83C248.562 425.83 253.921 420.476 253.921 413.873C253.921 407.269 248.562 401.916 241.952 401.916C235.342 401.916 229.983 407.269 229.983 413.873C229.983 420.476 235.342 425.83 241.952 425.83Z" fill="#6C63FF"/>
<path d="M267.805 94.2854C276.044 94.2854 282.722 87.7539 282.722 79.6969C282.722 71.6399 276.044 65.1084 267.805 65.1084C259.567 65.1084 252.889 71.6399 252.889 79.6969C252.889 87.7539 259.567 94.2854 267.805 94.2854Z" fill="#F2F2F2"/>
<path d="M387.387 74.706H307.096C304.341 74.706 302.1 72.467 302.1 69.7152C302.1 66.9633 304.341 64.7244 307.096 64.7244H387.387C390.142 64.7244 392.383 66.9633 392.383 69.7152C392.383 72.467 390.142 74.706 387.387 74.706Z" fill="#F2F2F2"/>
<path d="M450.047 91.5981H307.096C304.341 91.5981 302.1 89.3591 302.1 86.6073C302.1 83.8554 304.341 81.6165 307.096 81.6165H450.047C452.802 81.6165 455.043 83.8554 455.043 86.6073C455.043 89.3591 452.802 91.5981 450.047 91.5981Z" fill="#F2F2F2"/>
<path d="M51.8949 155.599C57.2266 155.599 61.5489 151.371 61.5489 146.157C61.5489 140.943 57.2266 136.716 51.8949 136.716C46.5632 136.716 42.241 140.943 42.241 146.157C42.241 151.371 46.5632 155.599 51.8949 155.599Z" fill="#F2F2F2"/>
<path d="M129.287 142.927H77.3232C75.5405 142.927 74.0901 141.478 74.0901 139.697C74.0901 137.916 75.5405 136.467 77.3232 136.467H129.287C131.069 136.467 132.52 137.916 132.52 139.697C132.52 141.478 131.069 142.927 129.287 142.927Z" fill="#F2F2F2"/>
<path d="M169.839 153.859H77.3232C75.5405 153.859 74.0901 152.41 74.0901 150.629C74.0901 148.848 75.5405 147.399 77.3232 147.399H169.839C171.622 147.399 173.072 148.848 173.072 150.629C173.072 152.41 171.622 153.859 169.839 153.859Z" fill="#F2F2F2"/>
<path d="M341.536 491.594C346.867 491.594 351.189 487.367 351.189 482.152C351.189 476.938 346.867 472.711 341.536 472.711C336.204 472.711 331.882 476.938 331.882 482.152C331.882 487.367 336.204 491.594 341.536 491.594Z" fill="#F2F2F2"/>
<path d="M418.927 478.922H366.964C365.181 478.922 363.73 477.473 363.73 475.692C363.73 473.911 365.181 472.462 366.964 472.462H418.927C420.71 472.462 422.16 473.911 422.16 475.692C422.16 477.473 420.71 478.922 418.927 478.922Z" fill="#F2F2F2"/>
<path d="M459.479 489.854H366.964C365.181 489.854 363.73 488.405 363.73 486.625C363.73 484.844 365.181 483.395 366.964 483.395H459.479C461.262 483.395 462.713 484.844 462.713 486.625C462.713 488.405 461.262 489.854 459.479 489.854Z" fill="#F2F2F2"/>
<path d="M225.495 186.496H223.101V300.089H225.495V186.496Z" fill="#E6E6E6"/>
<path d="M224.298 307.263C228.264 307.263 231.479 304.051 231.479 300.089C231.479 296.126 228.264 292.914 224.298 292.914C220.332 292.914 217.117 296.126 217.117 300.089C217.117 304.051 220.332 307.263 224.298 307.263Z" fill="#E6E6E6"/>
<path d="M333.212 389.767C337.178 389.767 340.394 386.555 340.394 382.593C340.394 378.63 337.178 375.418 333.212 375.418C329.246 375.418 326.031 378.63 326.031 382.593C326.031 386.555 329.246 389.767 333.212 389.767Z" fill="#E6E6E6"/>
<path d="M139.321 291.718C143.287 291.718 146.502 288.506 146.502 284.544C146.502 280.582 143.287 277.37 139.321 277.37C135.355 277.37 132.14 280.582 132.14 284.544C132.14 288.506 135.355 291.718 139.321 291.718Z" fill="#E6E6E6"/>
<path d="M136.667 284.555L97.3945 285.743L97.467 288.134L136.739 286.947L136.667 284.555Z" fill="#E6E6E6"/>
<path d="M391.633 410.058H332.082V382.593H334.476V407.667H391.633V410.058Z" fill="#E6E6E6"/>
<path d="M136.373 370.056C140.339 370.056 143.554 366.844 143.554 362.882C143.554 358.919 140.339 355.707 136.373 355.707C132.407 355.707 129.192 358.919 129.192 362.882C129.192 366.844 132.407 370.056 136.373 370.056Z" fill="#E6E6E6"/>
<path d="M194.084 390.347H134.533V362.882H136.927V387.955H194.084V390.347Z" fill="#E6E6E6"/>
<path d="M376.299 335.583H90.2705V337.974H376.299V335.583Z" fill="#E6E6E6"/>
</g>
<defs>
<clipPath id="clip0_730_90">
<rect width="676" height="538" fill="white"/>
</clipPath>
</defs>
</svg>
