<svg width="44" height="44" viewBox="0 0 44 44" fill="none" xmlns="http://www.w3.org/2000/svg">
<g id="book-svgrepo-com 1" clip-path="url(#clip0_471_71)">
<g id="SVGRepo_iconCarrier">
<g id="Group">
<path id="Vector" d="M0.164766 25.2441V25.2424L0.162964 25.2363L0.164766 25.2441Z" fill="#3D548D"/>
<path id="Vector_2" d="M0.861708 26.9038L0.851395 26.8913C0.850708 26.8906 0.850708 26.8906 0.850708 26.8906L0.861708 26.9038Z" fill="#3D548D"/>
<path id="Vector_3" d="M0.861708 19.2275L0.851395 19.2151C0.850708 19.2151 0.850708 19.2151 0.850708 19.2151L0.861708 19.2275Z" fill="#3D548D"/>
<path id="Vector_4" d="M0.164782 17.569C0.164782 17.569 0.164782 17.5665 0.163934 17.5648L0.163086 17.5623L0.164782 17.569Z" fill="#3D548D"/>
<path id="Vector_5" d="M44 17.5905C44.0007 17.395 43.9626 17.2056 43.9012 17.026C43.9613 16.8601 43.9931 16.6929 43.9938 16.5311C43.9952 16.2768 43.9246 16.0308 43.8176 15.8332L43.8142 15.827C43.7817 15.7676 43.7375 15.7047 43.6884 15.6418V10.8922C43.8833 10.6123 43.9994 10.2758 44.0001 9.91438C44.0001 9.21503 43.5786 8.58682 42.9338 8.32222L27.0044 1.66671H26.9581C26.6236 1.54923 26.2768 1.47876 25.9249 1.47876C25.5815 1.47876 25.2374 1.54579 24.9064 1.65974H24.865L1.51826 11.0677L1.46016 11.1002L1.46154 11.1022C1.16368 11.259 0.94325 11.4767 0.791226 11.6874C0.52525 12.0572 0.389125 12.447 0.290211 12.8008L0.289523 12.8056C0.141023 13.355 0.0788047 13.9126 0.0408203 14.3847L0.0401328 14.3888C0.00489844 14.8628 0.00283594 15.2637 8.59375e-05 15.4282V15.4323V15.5202C0.000773437 16.0958 0.0325703 16.8441 0.163883 17.5643L0.165945 17.5719C0.235125 17.934 0.332492 18.3016 0.498437 18.6596L0.501187 18.6651L0.501789 18.6665C0.58618 18.8428 0.696008 19.0314 0.848031 19.2111L0.851469 19.2152C0.862469 19.2284 0.878453 19.2402 0.890914 19.2526C0.859117 19.2899 0.817609 19.3258 0.791312 19.3638C0.524562 19.7328 0.389211 20.1226 0.290297 20.4757L0.289609 20.4791V20.4805C0.141109 21.0299 0.0788906 21.5882 0.0409062 22.0602L0.0402187 22.0636C0.0048125 22.5384 0.00275 22.9386 0 23.1037V23.1072V23.1956C0.0006875 23.772 0.0324844 24.5204 0.164484 25.2412L0.165859 25.2467C0.235039 25.6095 0.332406 25.9778 0.498352 26.3358L0.501703 26.3419C0.585406 26.5168 0.695234 26.7055 0.847945 26.8871L0.851383 26.8913C0.879055 26.9245 0.919789 26.9542 0.952273 26.9873C0.897617 27.0475 0.834797 27.107 0.791226 27.167C0.524476 27.5367 0.389125 27.9265 0.290211 28.2789L0.288148 28.2886L0.289523 28.2844C0.141023 28.8338 0.0788047 29.3922 0.0408203 29.8642L0.0401328 29.8683C0.00489844 30.3423 0.00283594 30.7431 8.59375e-05 30.909V30.9131V30.9988C0.000773437 31.5758 0.0325703 32.3249 0.16457 33.0458L0.165945 33.0513C0.235125 33.4134 0.332492 33.7817 0.498437 34.139L0.501789 34.1458C0.585492 34.3214 0.69532 34.5094 0.848031 34.6911L0.837031 34.6787L0.851555 34.6959C0.997305 34.8652 1.19771 35.029 1.44796 35.1513L1.44521 35.1554L1.45002 35.1582L1.48526 35.1782L18.6683 42.2698L18.7076 42.2864C19.0884 42.4419 19.4934 42.5213 19.9004 42.5213C20.2998 42.5213 20.6999 42.4447 21.0772 42.2905L43.0692 33.3538V33.3532C43.3228 33.2509 43.562 33.0843 43.7451 32.8169L43.7458 32.8176C43.7458 32.8176 43.7465 32.8155 43.7472 32.8142C43.7479 32.8135 43.7485 32.8135 43.7492 32.8121H43.7485C43.922 32.5495 43.9924 32.2731 43.9939 32.0105C43.9953 31.7561 43.9247 31.5101 43.8177 31.3125L43.8143 31.3063V31.307C43.7818 31.2475 43.7375 31.184 43.6885 31.1211V26.3722C43.8834 26.0923 43.9995 25.7544 44.0002 25.3937C44.0009 25.1753 43.9545 24.9632 43.8764 24.7648C43.9552 24.5782 43.9932 24.3882 43.9939 24.2064C43.9953 23.9514 43.9247 23.7068 43.8177 23.5077L43.8143 23.5015C43.7818 23.4428 43.7375 23.3792 43.6885 23.3163V18.568C43.8831 18.2878 43.9993 17.9505 44 17.5905ZM18.5859 40.3165L2.22166 33.5621L2.16012 33.4902C2.10899 33.4107 2.04342 33.2594 1.99083 33.0714C1.90936 32.7902 1.85333 32.4239 1.81947 32.0535C1.78561 31.6838 1.77384 31.3114 1.77384 30.999V30.9251C1.77659 30.6839 1.78552 29.986 1.88504 29.3294C1.93205 29.0018 2.00466 28.686 2.09438 28.4621L2.11312 28.4214L18.5857 35.1039V40.3165H18.5859ZM18.5859 32.5123L3.69574 26.3648L2.22174 25.7581L2.16021 25.6862C2.10908 25.6061 2.04351 25.4554 1.99091 25.2681C1.90945 24.9854 1.85341 24.6198 1.81955 24.2495C1.7857 23.8798 1.77392 23.5074 1.77392 23.1956V23.121C1.77667 22.8792 1.78561 22.1819 1.88512 21.5246C1.93213 21.1977 2.00475 20.8812 2.09447 20.658L2.1132 20.6173L18.5858 27.2997V32.5123H18.5859ZM18.5859 20.0486V20.365V24.8368L3.53753 18.6236L2.22174 18.0824L2.16021 18.0099C2.10908 17.9304 2.04351 17.779 1.99091 17.5926C1.90945 17.3105 1.85341 16.945 1.81955 16.5739C1.7857 16.2035 1.77392 15.8317 1.77392 15.5201V15.4454C1.77667 15.2043 1.78561 14.5063 1.88512 13.8497C1.93213 13.5221 2.00475 13.2064 2.09447 12.9824L2.1132 12.9424L18.5858 19.6242V20.0486H18.5859ZM41.9144 31.9098L20.4669 40.6233L20.4102 40.6488C20.245 40.7138 20.0729 40.7476 19.9002 40.7476C19.8387 40.7476 19.7759 40.7386 19.715 40.729V35.4514C19.7959 35.4604 19.8795 35.4652 19.9604 35.4652C20.2831 35.4652 20.6065 35.4016 20.9085 35.2773L20.9292 35.2684L41.9145 26.7035V31.9098H41.9144ZM41.9144 24.076V24.1051L20.4669 32.8192L20.4102 32.8441C20.245 32.9098 20.0729 32.943 19.9002 32.943C19.8387 32.943 19.7759 32.934 19.715 32.9257V27.6474C19.7959 27.6564 19.8795 27.6613 19.9604 27.6613C20.2831 27.6613 20.6065 27.5977 20.9085 27.4739L20.9292 27.4643L35.6479 21.4576L41.9144 18.8992V24.076ZM41.9144 16.272V16.4302L20.4669 25.1437L20.4102 25.1686C20.245 25.2342 20.0729 25.2681 19.9002 25.2681C19.8387 25.2681 19.7759 25.259 19.715 25.2502V20.4252V19.9712C19.7959 19.9809 19.8795 19.985 19.9604 19.985C20.2831 19.985 20.6065 19.9222 20.9085 19.7985L20.9292 19.7895L41.9145 11.2239V16.272H41.9144Z" fill="#3D548D"/>
<path id="Vector_6" d="M0.164766 33.0486V33.0469L0.162964 33.0417L0.164766 33.0486Z" fill="#3D548D"/>
</g>
</g>
</g>
<defs>
<clipPath id="clip0_471_71">
<rect width="44" height="44" fill="white"/>
</clipPath>
</defs>
</svg>
