<svg width="54" height="54" viewBox="0 0 54 54" fill="none" xmlns="http://www.w3.org/2000/svg">
<g id="Frame">
<g id="SVGRepo_iconCarrier">
<path id="Vector" fill-rule="evenodd" clip-rule="evenodd" d="M7.4092 7.409C6.53053 8.2877 6.53053 9.7123 7.4092 10.591L9.65921 12.841C10.5379 13.7197 11.9625 13.7197 12.8412 12.841C13.7199 11.9623 13.7199 10.5377 12.8412 9.659L10.5912 7.409C9.71251 6.53033 8.2879 6.53033 7.4092 7.409ZM43.4092 7.409C44.2879 6.53033 45.7126 6.53033 46.5912 7.409C47.4698 8.2877 47.4698 9.7123 46.5912 10.591L44.3412 12.841C43.4626 13.7197 42.0379 13.7197 41.1592 12.841C40.2806 11.9623 40.2806 10.5377 41.1592 9.659L43.4092 7.409ZM44.3412 32.159L46.5912 34.409C47.4698 35.2877 47.4698 36.7123 46.5912 37.591C45.7126 38.4696 44.2879 38.4696 43.4092 37.591L41.1592 35.341C40.2806 34.4623 40.2806 33.0377 41.1592 32.159C42.0379 31.2804 43.4626 31.2804 44.3412 32.159ZM7.4092 37.591C6.53053 36.7123 6.53053 35.2877 7.4092 34.409L9.65921 32.159C10.5379 31.2804 11.9625 31.2804 12.8412 32.159C13.7199 33.0377 13.7199 34.4623 12.8412 35.341L10.5912 37.591C9.71251 38.4696 8.2879 38.4696 7.4092 37.591ZM45.9319 24.75C47.1746 24.7502 48.1819 23.7429 48.1819 22.5002C48.1822 21.2576 47.1749 20.2502 45.9322 20.2501L45.0002 20.25C43.7575 20.2499 42.7502 21.2572 42.75 22.4998C42.75 23.7425 43.7573 24.75 45 24.75H45.9319ZM4.5 22.9662C4.50009 24.2089 5.50753 25.2162 6.75016 25.216H7.68213C8.92478 25.216 9.93206 24.2084 9.93197 22.9657C9.93188 21.7232 8.92447 20.7159 7.68181 20.716L6.74984 20.716C5.50721 20.7161 4.49991 21.7235 4.5 22.9662ZM34.7323 33.5675C38.2196 31.1267 40.5 27.0796 40.5 22.5C40.5 15.0442 34.4558 9 27 9C19.5442 9 13.5 15.0442 13.5 22.5C13.5 27.0796 15.7804 31.1267 19.2676 33.5675C18.4753 34.5368 18 35.7754 18 37.125C18 39.8473 19.9339 42.118 22.5027 42.6379C22.5009 42.6751 22.5 42.7124 22.5 42.75C22.5 43.9927 23.5073 45 24.75 45H29.25C30.4927 45 31.5 43.9927 31.5 42.75C31.5 42.7124 31.4991 42.6751 31.4973 42.6379C34.0661 42.118 36 39.8473 36 37.125C36 35.7754 35.5248 34.5368 34.7323 33.5675ZM27 31.5C31.9705 31.5 36 27.4705 36 22.5C36 17.5294 31.9705 13.5 27 13.5C22.0294 13.5 18 17.5294 18 22.5C18 27.4705 22.0294 31.5 27 31.5ZM27 36H26.8078H23.625C23.0038 36 22.5 36.5038 22.5 37.125C22.5 37.7462 23.0038 38.25 23.625 38.25H26.8078H27.1922H30.375C30.9962 38.25 31.5 37.7462 31.5 37.125C31.5 36.5038 30.9962 36 30.375 36H27.1922H27Z" fill="#3D548D"/>
</g>
</g>
</svg>
