<svg width="44" height="44" viewBox="0 0 44 44" fill="none" xmlns="http://www.w3.org/2000/svg">
<g id="work">
<g id="SVGRepo_iconCarrier">
<path id="primary" d="M29.3333 7.33333C29.3333 6.8471 29.1402 6.38079 28.7964 6.03697C28.4525 5.69315 27.9862 5.5 27.5 5.5H16.5C16.0138 5.5 15.5475 5.69315 15.2036 6.03697C14.8598 6.38079 14.6667 6.8471 14.6667 7.33333V12.8333H29.3333V7.33333ZM38.5 36.6667V14.6667C38.5 14.1804 38.3068 13.7141 37.963 13.3703C37.6192 13.0265 37.1529 12.8333 36.6667 12.8333H7.33333C6.8471 12.8333 6.38079 13.0265 6.03697 13.3703C5.69315 13.7141 5.5 14.1804 5.5 14.6667V36.6667C5.5 37.1529 5.69315 37.6192 6.03697 37.963C6.38079 38.3068 6.8471 38.5 7.33333 38.5H36.6667C37.1529 38.5 37.6192 38.3068 37.963 37.963C38.3068 37.6192 38.5 37.1529 38.5 36.6667Z" stroke="#3D548D" stroke-width="2" stroke-linecap="round" stroke-linejoin="round"/>
<path id="secondary" d="M20.1666 25.6666H15.84C14.4171 25.6542 13.0286 25.2282 11.8437 24.4404C10.6588 23.6526 9.72861 22.5371 9.16662 21.2299L5.82996 13.6216C5.99843 13.3787 6.22312 13.1802 6.48489 13.0429C6.74665 12.9057 7.03772 12.8337 7.33329 12.8333H36.6666C36.9622 12.8337 37.2533 12.9057 37.515 13.0429C37.7768 13.1802 38.0015 13.3787 38.17 13.6216L34.8333 21.2299C34.2713 22.5371 33.3412 23.6526 32.1562 24.4404C30.9713 25.2282 29.5828 25.6542 28.16 25.6666H23.8333" stroke="#3D548D" stroke-width="2" stroke-linecap="round" stroke-linejoin="round"/>
<path id="primary_2" d="M23.8333 23.8333H20.1666V27.4999H23.8333V23.8333Z" stroke="#3D548D" stroke-width="2" stroke-linecap="round" stroke-linejoin="round"/>
</g>
</g>
</svg>
